<?xml version="1.0" encoding="UTF-8" standalone="no"?>
<svg
   width="1266.6406"
   height="911.4491"
   viewBox="0 0 1266.6406 911.4491"
   version="1.1"
   id="svg13"
   sodipodi:docname="E2-2.svg"
   inkscape:version="1.3 (0e150ed6c4, 2023-07-21)"
   inkscape:export-filename="..\..\Website\HG-website\svg\E2-2.svg"
   inkscape:export-xdpi="96"
   inkscape:export-ydpi="96"
   xmlns:inkscape="http://www.inkscape.org/namespaces/inkscape"
   xmlns:sodipodi="http://sodipodi.sourceforge.net/DTD/sodipodi-0.dtd"
   xmlns="http://www.w3.org/2000/svg"
   xmlns:svg="http://www.w3.org/2000/svg">
  <sodipodi:namedview
     id="namedview13"
     pagecolor="#505050"
     bordercolor="#eeeeee"
     borderopacity="1"
     inkscape:showpageshadow="0"
     inkscape:pageopacity="0"
     inkscape:pagecheckerboard="0"
     inkscape:deskcolor="#d1d1d1"
     inkscape:zoom="0.64114585"
     inkscape:cx="609.84564"
     inkscape:cy="437.49796"
     inkscape:window-width="1760"
     inkscape:window-height="992"
     inkscape:window-x="8"
     inkscape:window-y="117"
     inkscape:window-maximized="0"
     inkscape:current-layer="svg13" />
  <defs
     id="defs4" />
  <path
     style="color:#000000;fill:#ffffff;fill-opacity:1;stroke-width:1.51143;-inkscape-stroke:none"
     d="m 517.51328,730.53573 c -13.44584,0 -26.88307,-1.38084 -39.93821,-4.10475 -12.72262,-2.65422 -25.23727,-6.61477 -37.19601,-11.77193 -11.74261,-5.06375 -23.06852,-11.33165 -33.66336,-18.62899 -10.49493,-7.22918 -20.36427,-15.53102 -29.33341,-24.67548 -8.96989,-9.14537 -17.11331,-19.20848 -24.20451,-29.90986 -7.15933,-10.80402 -13.3083,-22.35453 -18.27623,-34.32975 -5.05997,-12.19694 -8.94616,-24.96068 -11.55051,-37.93737 -2.67251,-13.31587 -4.02766,-27.02168 -4.02766,-40.7364 0,-13.03353 1.22668,-26.07476 3.64572,-38.76096 2.35829,-12.36834 5.88204,-24.57149 10.47317,-36.27102 l 0.37876,-0.96536 -0.76418,-0.70069 c -8.89417,-8.15614 -16.99437,-17.26901 -24.07574,-27.08561 -7.1394,-9.8973 -13.28427,-20.5674 -18.26338,-31.71376 -5.07144,-11.35341 -8.97095,-23.28632 -11.58949,-35.46694 -2.6908,-12.51556 -4.05503,-25.41834 -4.05503,-38.3497 0,-24.53718 3.55171,-47.76546 10.55661,-69.03991 6.98642,-21.21944 17.22032,-39.92476 30.41694,-55.59664 13.50222,-16.03387 29.79848,-28.50831 48.43609,-37.07662 19.50154,-8.9649 41.30106,-13.51068 64.79338,-13.51068 3.9143,0 7.97491,0.14509 12.06968,0.43075 l 0.90505,0.0635 0.4814,-0.76901 c 7.53494,-12.03689 17.82461,-23.55445 30.58261,-34.23301 12.22415,-10.231325 26.29633,-19.357805 41.82583,-27.125355 15.31231,-7.65902 31.35056,-13.65638 47.66949,-17.82491 16.6265,-4.24727 32.80123,-6.40076 48.075,-6.40076 19.64931,0 38.93835,3.30066 57.33111,9.81025 17.77579,6.29148 34.38022,15.4509 49.35171,27.22344 l 0.83279,0.6546 0.89961,-0.55892 c 12.29791,-7.64573 25.53669,-13.55648 39.3481,-17.56888 14.2536,-4.14072 29.0673,-6.23994 44.0303,-6.23994 10.8823,0 21.7572,1.1177 32.3229,3.32212 10.2966,2.14805 20.4248,5.35349 30.1031,9.52701 9.5038,4.09839 18.6702,9.17106 27.2448,15.07728 8.4939,5.850595 16.4819,12.570115 23.7411,19.971135 7.2599,7.40179 13.8511,15.54643 19.5904,24.20769 5.7944,8.74454 10.7712,18.09289 14.7921,27.7854 4.0954,9.87191 7.2408,20.20255 9.3487,30.70548 2.1631,10.77772 3.26,21.87102 3.26,32.97173 0,16.60095 -2.4291,32.9755 -7.2197,48.66914 l -0.29,0.95054 0.7573,0.64281 c 8.8242,7.49247 16.88015,15.96963 23.94345,25.19616 7.113,9.29077 13.2446,19.37444 18.2241,29.97063 5.07134,10.79147 8.97344,22.17149 11.59814,33.82417 2.6993,11.98262 4.0678,24.35082 4.0678,36.76118 0,17.04743 -2.5604,33.84472 -7.6096,49.92514 -4.885,15.55641 -12.03474,30.25735 -21.25064,43.69503 -9.0946,13.26069 -20.03775,25.05696 -32.52505,35.06142 -12.5982,10.09334 -26.5367,18.17406 -41.428,24.01786 l -0.7889,0.30969 -0.1481,0.83431 c -3.3232,18.80281 -9.8104,36.71266 -19.2815,53.23215 -9.2687,16.16642 -21.0992,30.50174 -35.1627,42.60831 -14.1637,12.19287 -30.1116,21.70657 -47.4004,28.27661 -17.8923,6.79963 -36.7358,10.2472 -56.0067,10.2472 -16.68257,0 -33.12391,-2.60268 -48.86713,-7.73505 -15.22782,-4.96414 -29.62557,-12.23095 -42.79285,-21.59805 l -1.06148,-0.75496 -0.90354,0.9383 c -8.99377,9.34094 -18.91359,17.82536 -29.48424,25.21838 -10.66965,7.46224 -22.09119,13.87373 -33.94716,19.05597 -12.07558,5.27853 -24.72142,9.33309 -37.58597,12.05155 -13.20431,2.7901 -26.79918,4.2048 -40.4066,4.2048 z"
     id="path106" />
  <path
     style="color:#000000;fill:#ffffff;stroke-width:1.51143;-inkscape-stroke:none"
     d="m 610.88542,57.288325 c -15.34465,0 -31.58135,2.1624 -48.26241,6.42358 -16.37228,4.18213 -32.4598,10.2005 -47.81971,17.88326 -15.57788,7.79188 -29.7013,16.94798 -41.97473,27.220565 -12.80968,10.72179 -23.15225,22.29618 -30.73631,34.41166 l -0.24198,0.38376 -0.45177,-0.0287 c -4.11155,-0.28687 -8.18803,-0.43409 -12.12092,-0.43409 -23.58982,0 -45.50194,4.56574 -65.10959,13.57931 -18.73872,8.61471 -35.12868,21.16276 -48.69937,37.27809 -13.26357,15.75124 -23.54266,34.54392 -30.55631,55.84618 -7.03223,21.35758 -10.59483,44.66476 -10.59483,69.27494 0,12.98441 1.3686,25.94039 4.07089,38.509 2.62959,12.23217 6.54677,24.21434 11.63969,35.61612 5.00026,11.19366 11.17113,21.90971 18.34091,31.84919 7.11144,9.85846 15.2446,19.00866 24.17701,27.19986 l 0.38073,0.35126 -0.18893,0.48124 c -4.60836,11.74352 -8.14494,23.99261 -10.51199,36.40721 -2.42813,12.73365 -3.65768,25.82068 -3.65768,38.90167 0,13.76445 1.35894,27.51968 4.04142,40.88527 2.61402,13.02521 6.51352,25.83535 11.59254,38.07809 4.9865,12.02026 11.16041,23.61128 18.34681,34.45595 7.11778,10.74159 15.29113,20.84203 24.29505,30.02201 9.00299,9.17908 18.90815,17.51341 29.44342,24.77024 10.6355,7.32546 22.00311,13.61755 33.79169,18.70109 12.00558,5.17726 24.57012,9.15217 37.34293,11.81683 12.29126,2.56459 24.92365,3.82966 37.57917,3.99123 l -0.21553,0.12999 h 2.72768 c 13.65971,0 27.3043,-1.42029 40.56061,-4.22143 12.91534,-2.72919 25.60985,-6.79812 37.73273,-12.09734 11.90237,-5.2025 23.36744,-11.63818 34.07805,-19.12898 10.61115,-7.42143 20.56907,-15.93729 29.59685,-25.3136 l 0.45161,-0.4693 0.53142,0.37786 c 13.2288,9.41092 27.69501,16.71219 42.99599,21.70022 15.81909,5.15715 32.33979,7.77268 49.10095,7.77268 19.361,0 38.2965,-3.4645 56.2742,-10.29662 17.3711,-6.60133 33.3959,-16.16113 47.6249,-28.41022 14.1281,-12.16234 26.0158,-26.56719 35.3267,-42.80721 9.5143,-16.59476 16.033,-34.5879 19.3711,-53.47565 v 0 l 0.077,-0.41625 0.3927,-0.15643 c 14.9625,-5.87176 28.9694,-13.98951 41.6263,-24.12985 12.5453,-10.05102 23.53955,-21.90487 32.67585,-35.22632 9.2581,-13.49935 16.43874,-28.26588 21.34604,-43.89348 5.0723,-16.15433 7.6457,-33.0287 7.6457,-50.15186 0,-12.46583 -1.3739,-24.88874 -4.0856,-36.92668 -2.6368,-11.70649 -6.5568,-23.13911 -11.65164,-33.9806 -5.0027,-10.64532 -11.1625,-20.77372 -18.3084,-30.10756 -7.0962,-9.26946 -15.18745,-17.78592 -24.05305,-25.3136 l -0.3807,-0.32179 0.1451,-0.47519 c 4.8127,-15.76589 7.2531,-32.21661 7.2531,-48.89133 0,-11.15043 -1.1007,-22.29119 -3.2738,-33.11863 -2.1175,-10.55145 -5.279,-20.92788 -9.3932,-30.84559 -4.0396,-9.73755 -9.0363,-19.12913 -14.8576,-27.91433 -5.7659,-8.70146 -12.3872,-16.88223 -19.6811,-24.31863 -7.2931,-7.43563 -15.318,-14.18644 -23.8522,-20.064845 -8.6154,-5.93433 -17.8244,-11.03148 -27.3741,-15.14968 -9.7252,-4.19377 -19.9025,-7.41493 -30.2492,-9.57341 -10.6172,-2.21515 -21.5441,-3.33572 -32.4781,-3.33572 -15.0337,0 -29.9163,2.10633 -44.239,6.26699 -13.87807,4.0319 -27.18018,9.97122 -39.53628,17.65307 l -0.45162,0.28052 -0.41625,-0.32768 c -15.03501,-11.82271 -31.71335,-21.02249 -49.56713,-27.34164 -18.47362,-6.53815 -37.84806,-9.85377 -57.58201,-9.85377 z m 0,1.51143 c 19.5647,0 38.76834,3.28721 57.08023,9.76823 17.6978,6.26383 34.22848,15.38289 49.13618,27.1054 l 1.24874,0.98002 1.34911,-0.83839 c 12.23972,-7.60946 25.41366,-13.49164 39.15843,-17.48469 14.1845,-4.12077 28.9273,-6.20806 43.8197,-6.20806 10.8305,0 21.6569,1.10954 32.171,3.30324 10.2465,2.13761 20.3256,5.32855 29.957,9.48181 9.4578,4.0786 18.5804,9.12693 27.1144,15.00519 8.4535,5.822775 16.4055,12.512375 23.6309,19.878785 7.2258,7.36717 13.7882,15.4763 19.5009,24.09736 5.7675,8.70387 10.7224,18.00991 14.7247,27.65738 4.0763,9.82611 7.2066,20.11065 9.3047,30.56522 2.1531,10.72784 3.2442,21.76945 3.2442,32.82043 0,16.52719 -2.4166,32.82692 -7.1851,48.44847 l -0.4369,1.42589 1.1365,0.9652 c 8.7828,7.4574 16.80105,15.89663 23.83155,25.08038 7.0799,9.24755 13.1836,19.28587 18.1401,29.83309 5.04794,10.74129 8.93274,22.06871 11.54544,33.66758 2.6868,11.92731 4.0501,24.24139 4.0501,36.59614 0,16.97186 -2.5488,33.69071 -7.5748,49.69722 -4.8626,15.48506 -11.98054,30.11889 -21.15414,43.49491 -9.0529,13.19993 -19.94255,24.94088 -32.37185,34.89879 -12.5396,10.04634 -26.4136,18.08957 -41.2336,23.90541 l -1.1809,0.4634 -0.2243,1.25177 c -3.3082,18.71771 -9.7633,36.54444 -19.1911,52.98851 -9.2265,16.09296 -21.0033,30.36088 -35.002,42.41167 -14.0985,12.13664 -29.9696,21.60273 -47.1762,28.14149 -17.8069,6.76728 -36.5562,10.19929 -55.7369,10.19929 -16.60397,0 -32.96416,-2.5912 -48.6315,-7.69893 -15.15467,-4.94027 -29.48606,-12.17322 -42.59168,-21.49648 l -1.59108,-1.13071 -1.355,1.40518 c -8.95977,9.30573 -18.84256,17.75992 -29.37255,25.12467 -10.62869,7.43353 -22.00868,13.81947 -33.81825,18.98147 -12.02827,5.25781 -24.62363,9.29802 -37.43739,12.00575 -13.15233,2.77907 -26.69581,4.18893 -40.25078,4.18893 -13.39415,0 -26.78075,-1.3754 -39.78435,-4.08857 -12.67244,-2.6438 -25.13872,-6.59136 -37.05062,-11.72826 -11.69666,-5.04395 -22.98086,-11.28706 -33.53488,-18.55644 -10.45472,-7.20137 -20.28688,-15.47162 -29.22201,-24.58147 -8.93603,-9.11075 -17.05046,-19.13638 -24.11504,-29.79756 -7.13244,-10.76336 -13.25873,-22.27185 -18.20806,-34.20203 -5.04092,-12.15115 -8.9123,-24.86939 -11.50698,-37.79757 -2.66238,-13.26613 -4.01179,-26.92237 -4.01179,-40.58722 0,-12.98622 1.22109,-25.98256 3.63106,-38.6213 2.34952,-12.32209 5.86148,-24.48005 10.43538,-36.1356 l 0.56678,-1.44644 -1.14536,-1.0509 c -8.85593,-8.12107 -16.92213,-17.19782 -23.97341,-26.97255 -7.10887,-9.85513 -13.22941,-20.4817 -18.18736,-31.58075 -5.04984,-11.30505 -8.93195,-23.18581 -11.53932,-35.31489 -2.67947,-12.46251 -4.0384,-25.31496 -4.0384,-38.19311 0,-24.46433 3.54053,-47.6113 10.51805,-68.80262 6.95909,-21.13646 17.14901,-39.75488 30.27881,-55.34726 13.4336,-15.9524 29.63735,-28.35475 48.17385,-36.87665 19.39544,-8.91609 41.08312,-13.44056 64.47796,-13.44056 3.89556,0 7.93683,0.14359 12.01467,0.42804 l 1.35787,0.0967 0.72337,-1.15428 c 7.48566,-11.95829 17.72017,-23.41917 30.42632,-34.05436 12.17488,-10.190065 26.19854,-19.285405 41.67953,-27.028615 15.2647,-7.6353 31.25307,-13.61634 47.51849,-17.77111 16.57209,-4.23337 32.68485,-6.37643 47.88758,-6.37643 z"
     id="path107" />
  <path
     d="m 517.51328,729.0243 c 13.50252,0 26.99205,-1.40367 40.09404,-4.17231 12.76434,-2.697 25.31149,-6.72027 37.29321,-11.95754 11.76452,-5.14234 23.09811,-11.50471 33.68629,-18.90936 10.49054,-7.33724 20.33571,-15.75788 29.26161,-25.0284 l 1.80707,-1.87674 2.12281,1.51037 c 13.04259,9.27823 27.3031,16.47551 42.38521,21.3925 15.59163,5.08294 31.87533,7.66054 48.39879,7.66054 19.0868,0 37.7495,-3.41448 55.4699,-10.14866 17.1241,-6.50747 32.9207,-15.93094 46.9513,-28.00909 13.9331,-11.99441 25.6543,-26.19764 34.8374,-42.21503 9.3839,-16.36698 15.8116,-34.1127 19.1044,-52.74321 l 0.295,-1.66862 1.5775,-0.61923 c 14.7493,-5.78818 28.5555,-13.79256 41.0349,-23.79053 12.3714,-9.91151 23.21295,-21.59851 32.22385,-34.73677 9.131,-13.3139 16.21494,-27.87956 21.05484,-43.29314 5.0033,-15.93351 7.5402,-32.57814 7.5402,-49.47201 0,-12.29852 -1.356,-24.55487 -4.0305,-36.42897 -2.6009,-11.54583 -6.4673,-22.82141 -11.49174,-33.51312 -4.9339,-10.49931 -11.0088,-20.49002 -18.0562,-29.69539 -6.9984,-9.14099 -14.97945,-17.53986 -23.72185,-24.96235 l -1.5149,-1.28623 0.5802,-1.90077 c 4.747,-15.55051 7.1539,-31.77663 7.1539,-48.22781 0,-11.0011 -1.0868,-21.99435 -3.2303,-32.67442 -2.0887,-10.40651 -5.2053,-20.64222 -9.2629,-30.42345 -3.9839,-9.60318 -8.915,-18.86554 -14.6562,-27.52967 -5.6863,-8.5816 -12.2165,-16.65083 -19.4091,-23.98445 -7.1919,-7.3324 -15.105,-13.9889 -23.5197,-19.78478 -8.4935,-5.850145 -17.5728,-10.874745 -26.9859,-14.933845 -9.5852,-4.13361 -19.6159,-7.30807 -29.8133,-9.43571 -10.4644,-2.18296 -21.2353,-3.29009 -32.0142,-3.29009 -14.8202,0 -29.4922,2.07943 -43.6086,6.18009 -13.67902,3.97386 -26.79099,9.82793 -38.97192,17.40066 l -1.79905,1.11846 -1.6653,-1.3092 c -14.8418,-11.67082 -31.30159,-20.75044 -48.92201,-26.98661 -18.23043,-6.4523 -37.34958,-9.72394 -56.82674,-9.72394 -15.14772,0 -31.1967,2.13761 -47.70108,6.3539 -16.21448,4.14193 -32.15131,10.10105 -47.36719,17.71201 -15.42446,7.7151 -29.39779,16.776735 -41.53187,26.932645 -12.63617,10.57669 -22.8211,21.97409 -30.2717,33.87631 l -0.96293,1.53804 -1.80964,-0.12696 c -4.06,-0.2834 -8.0854,-0.42698 -11.96464,-0.42698 -23.27271,0 -44.85988,4.49922 -64.16192,13.37269 -18.43402,8.47444 -34.55373,20.81422 -47.91131,36.67699 -13.07176,15.52316 -23.21165,34.06026 -30.13779,55.0956 -6.9544,21.12165 -10.48056,44.19093 -10.48056,68.56714 0,12.8251 1.35288,25.62058 4.02116,38.032 2.59664,12.07814 6.46303,23.91054 11.49201,35.16798 4.93709,11.05279 11.02983,21.63281 18.10922,31.44638 7.02135,9.73317 15.05264,18.76896 23.87139,26.85557 l 1.52836,1.40185 -0.75768,1.93055 c -4.55696,11.61248 -8.05457,23.72509 -10.39532,36.00169 -2.40151,12.59324 -3.61897,25.53941 -3.61897,38.47802 0,13.61512 1.34517,27.22087 3.99804,40.43925 2.58515,12.88011 6.44247,25.54938 11.46481,37.65564 4.93089,11.8859 11.0342,23.34995 18.13989,34.07356 7.03813,10.62173 15.12097,20.60942 24.02375,29.68617 8.90157,9.07599 18.69625,17.31541 29.11183,24.48912 10.51351,7.24172 21.75221,13.46156 33.40444,18.48631 11.86549,5.11665 24.28281,9.04683 36.90613,11.68034 12.95387,2.70229 26.28727,4.07271 39.62958,4.07271 m 0,3.02286 c -110.29201,0 -199.70133,-91.15669 -199.70133,-203.60596 0,-26.71017 5.05195,-52.2133 14.22332,-75.58411 -35.89544,-32.91671 -58.4735,-80.63169 -58.4735,-133.72993 0,-99.31312 58.30573,-176.73529 155.71445,-176.73529 4.09402,0 8.151,0.15356 12.17488,0.43439 31.31928,-50.030785 106.90535,-86.293655 169.43417,-86.293655 40.5184,0 77.83685,13.93978 107.61718,37.35699 24.52781,-15.24868 53.34534,-24.03644 84.17644,-24.03644 89.4234,0 161.9145,73.908525 161.9145,165.079275 0,17.1029 -2.5499,33.5973 -7.2856,49.11048 35.66405,30.28062 58.36669,75.88776 58.36669,126.90415 0,70.27748 -43.07614,130.28674 -103.77249,154.10659 -13.629,77.11096 -79.7819,135.61257 -159.3397,135.61257 -34.40973,0 -66.30698,-10.95395 -92.53621,-29.61287 -36.23898,37.63751 -86.69625,60.99381 -142.5128,60.99381 z"
     stroke="none"
     fill="#e8daea"
     id="path9"
     style="stroke:#e6b9cf;stroke-width:1.51143;stroke-opacity:1" />
  <path
     id="Pfad_489"
     data-name="Pfad 489"
     d="m 630.81875,167.70291 c 23.2836,11.59872 43.65467,24.70737 66.92013,36.34388 0.24637,0.12242 2.02834,0.0484 3.24051,0.12091 -2.74476,-3.67127 -9.94219,-15.49519 -6.5445,-12.11563 9.19102,9.14265 10.55282,10.53316 13.0361,13.03458 0.41413,0.41867 1.058,-0.50784 1.59154,-0.75571 a 120.36887,120.36887 0 0 0 -1.65502,-12.13982 53.217495,53.217495 0 0 0 -14.17118,-25.15022 72.787506,72.787506 0 0 1 -10.34424,-14.88004 3.7543952,3.7543952 0 0 1 0.94163,0.4232 c 13.53486,11.45816 27.3569,22.60044 40.48822,34.50447 9.9301,9.00359 19.71057,18.36691 26.24597,30.37977 5.423,9.97544 8.1754,20.33782 4.0945,31.57682 a 34.329138,34.329138 0 0 1 -10.72058,14.66995 c -1.04138,0.87059 -2.11601,1.71094 -3.79823,3.07728 4.42094,0 8.04232,-0.22067 11.61991,0.0725 2.7296,0.22218 7.1762,0.50029 9.4827,1.78652 7.9683,4.44814 14.2815,9.29227 22.0215,14.1349 a 8.6317839,8.6317839 0 0 1 2.7735,3.46722 c 1.9347,3.88438 3.6683,7.86852 5.4805,11.81486 l -0.7437,0.34914 c -1.3164,-2.54374 -4.1171,-3.62743 -5.3776,-6.19687 -1.8001,-3.6758 -4.6477,-5.95352 -8.0983,-8.36879 -3.4506,-2.41527 -6.0457,-5.24013 -9.6157,-7.43775 -8.0907,-4.98773 -18.18252,-4.80031 -27.45213,-3.24051 -14.50974,2.44096 -27.83602,2.39108 -42.07673,5.90818 -13.08748,3.23295 -25.79409,8.26451 -38.37222,13.25072 a 338.0845,338.0845 0 0 0 -75.29795,41.39512 c -5.20385,3.80578 -10.17193,7.93501 -15.25185,11.9131 -0.54562,0.42774 -1.10788,0.83582 -1.66257,1.25298 l -0.61364,-0.55168 a 119.55421,119.55421 0 0 1 8.49877,-10.73116 c 5.65427,-5.72983 11.6607,-11.12262 17.65957,-16.5018 a 4.5206909,4.5206909 0 0 0 1.8651,-4.86077 30.821106,30.821106 0 0 1 -0.11638,-9.30588 c 1.36785,-10.43643 1.82279,-12.56453 3.23144,-22.99491 0.27962,-2.06915 0.96581,-12.49954 0.97185,-14.62159 0.0227,-8.065 -0.529,-16.20103 0.34008,-24.1829 1.30134,-11.94031 -4.52674,-20.0446 -13.08446,-26.66014 -8.73457,-6.75307 -19.37504,-8.46401 -30.05028,-9.50236 -4.58871,-0.44437 -9.21973,-0.4353 -13.83413,-0.64539 -2.06008,-0.0937 -3.04856,0.74514 -3.39165,2.91102 -3.55338,22.50824 -11.83753,44.95601 -15.03119,67.51261 -2.59059,18.28832 -4.62346,36.67942 -6.27546,55.0826 -1.81372,20.17912 -2.13867,40.40812 2.94276,60.26681 a 58.477275,58.477275 0 0 0 5.13886,12.82147 c 4.24864,7.97129 15.43776,11.09996 24.33405,9.40715 12.68695,-2.41829 24.00153,-8.06046 34.54678,-15.31835 25.29834,-17.4132 48.16927,-37.86589 71.79294,-57.37847 17.56737,-14.50974 34.63294,-29.69206 54.12435,-41.7155 0.82373,-0.50784 1.68676,-0.94918 2.52107,-1.44039 4.4693,-2.62838 8.36577,-2.46968 13.11016,0.44436 14.21803,8.73456 30.10166,13.10562 46.48706,15.5224 a 42.085803,42.085803 0 0 1 16.3613,5.44115 c 6.8694,4.22294 13.8764,8.1844 22.1319,9.24693 -0.051,0.36275 -1.6626,1.33762 -1.7185,1.69885 -3.4763,-0.27508 -5.3777,-1.16229 -9.4389,-1.48422 0.8177,1.55526 1.4494,2.84753 2.1583,4.09598 a 136.28727,136.28727 0 0 1 18.1614,73.27721 c -1.1593,32.30382 -12.4316,60.7686 -35.5459,83.76049 -6.9526,6.91329 -15.3229,12.42548 -23.2413,18.31402 -2.1402,1.59153 -3.576,3.07576 -3.0379,5.74344 1.7396,8.61515 2.6752,17.5326 5.553,25.75327 4.9877,14.28001 11.2072,28.13227 16.9099,42.16893 2.2248,5.47592 4.8078,10.83848 6.5807,16.45647 1.8666,5.90969 2.4274,11.96902 -0.9476,17.80617 -2.7675,4.78821 -7.5572,6.23919 -12.2275,7.68412 -7.9592,2.46061 -16.2645,2.09635 -24.3341,1.15775 -19.08934,-2.2218 -38.06839,-5.41999 -57.17137,-7.49972 -6.83469,-0.74362 -13.93237,0.27206 -20.84566,1.04742 -26.43039,2.96241 -49.1336,14.67902 -70.29208,30.11074 -8.66806,6.32231 -17.76688,12.05366 -26.66619,18.0616 a 101.74502,101.74502 0 0 1 -10.74023,4.00529 c -6.42358,1.15625 -11.65918,-1.20159 -16.32345,-5.15096 -7.64633,-6.46741 -12.73835,-14.89666 -16.64993,-23.88968 -6.12734,-14.082 -12.21085,-28.23202 -17.23032,-42.72816 -3.09843,-8.9507 -4.50406,-18.54375 -6.10316,-27.94485 a 221.19645,221.19645 0 0 1 -3.35991,-42.99569 141.31882,141.31882 0 0 1 20.04611,-68.92126 c 6.0291,-10.24448 14.7546,-25.26358 23.8383,-34.33519 -1.88173,0 -3.06065,-0.0408 -4.23201,0 -11.94031,0.47762 -20.26678,-5.17514 -25.99662,-15.28057 -5.70716,-10.05706 -7.89571,-21.11469 -8.90233,-32.41869 -2.19157,-24.59703 -0.98394,-43.21181 2.61931,-67.499 4.9711,-33.52808 12.43001,-66.56041 20.1096,-99.54438 0.23729,-1.01417 0.38692,-2.04648 0.64387,-3.43095 -1.81372,0 -2.82638,0.0333 -4.73834,0.0181 a 42.330655,42.330655 0 0 1 -11.98112,-1.454 34.451564,34.451564 0 0 1 -10.62687,-6.10013 c -0.87965,-1.09126 -6.01701,-7.48159 -4.46628,-12.43304 a 52.195767,52.195767 0 0 1 5.52277,-12.22748 c 2.37899,-3.75741 15.18384,-16.11941 15.92897,-16.72852 9.4661,-7.72493 15.30476,-12.83054 26.90348,-16.94617 6.60042,-2.34423 7.36823,-2.22634 14.11072,-0.30228 6.84679,1.95428 14.06538,2.72057 20.77765,5.01039 11.27225,3.84962 16.52599,8.48064 27.62896,12.81996 2.37744,0.92953 4.68539,2.0223 7.15356,3.0939 z"
     fill="#f2cbf6"
     stroke="#707070"
     stroke-width="0.302286"
     opacity="0.56"
     style="fill:#e6b9cf;fill-opacity:1;stroke:#e6b9cf;stroke-opacity:1" />
  <path
     id="Pfad_490"
     data-name="Pfad 490"
     d="m 767.62141,302.64047 c 4.2758,0 8.464,-0.24334 12.5948,0.068 4.0113,0.30228 7.1037,2.48025 9.8318,5.53183 4.3484,4.86984 9.0595,9.41471 13.6029,14.10317 0.26,0.26752 0.4534,0.59248 1.188,1.56131 a 34.020806,34.020806 0 0 1 -12.5116,-8.37182 c -3.5217,-3.72719 -6.5687,-8.14964 -11.7892,-9.7185 -4.1746,-1.25751 -8.4806,-2.10694 -12.9167,-3.17401 z"
     fill="#f2cbf6"
     stroke="#707070"
     stroke-width="0.302286"
     opacity="0.56"
     style="fill:#e6b9cf;fill-opacity:1;stroke:#e6b9cf;stroke-opacity:1" />
  <ellipse
     cx="-959.84644"
     cy="795.5249"
     rx="26.450047"
     ry="27.205763"
     fill="none"
     id="ellipse12"
     style="fill:#ffffff;fill-opacity:1;stroke:#e6b9cf;stroke-width:3.221;stroke-dasharray:none;stroke-opacity:1"
     transform="scale(-1,1)" />
  <ellipse
     cx="-966.99689"
     cy="874.55084"
     rx="18.058571"
     ry="18.57453"
     fill="none"
     id="ellipse12-2"
     style="fill:#ffffff;fill-opacity:1;stroke:#e6b9cf;stroke-width:2.857;stroke-dasharray:none;stroke-opacity:1"
     transform="scale(-1,1)" />
  <ellipse
     cx="-901.93018"
     cy="715.46631"
     rx="38.732666"
     ry="39.839314"
     fill="none"
     id="ellipse12-7"
     style="fill:#ffffff;fill-opacity:1;stroke:#e6b9cf;stroke-width:3.98394;stroke-dasharray:none;stroke-opacity:1"
     transform="scale(-1,1)" />
</svg>
