<?xml version="1.0" encoding="UTF-8" standalone="no"?>
<svg
   width="674.02734"
   height="764.23004"
   viewBox="0 0 674.02734 764.23004"
   version="1.1"
   id="svg7"
   sodipodi:docname="E3-2-2.svg"
   inkscape:version="1.3 (0e150ed6c4, 2023-07-21)"
   xmlns:inkscape="http://www.inkscape.org/namespaces/inkscape"
   xmlns:sodipodi="http://sodipodi.sourceforge.net/DTD/sodipodi-0.dtd"
   xmlns="http://www.w3.org/2000/svg"
   xmlns:svg="http://www.w3.org/2000/svg">
  <sodipodi:namedview
     id="namedview7"
     pagecolor="#505050"
     bordercolor="#eeeeee"
     borderopacity="1"
     inkscape:showpageshadow="0"
     inkscape:pageopacity="0"
     inkscape:pagecheckerboard="0"
     inkscape:deskcolor="#d1d1d1"
     inkscape:zoom="0.70710678"
     inkscape:cx="608.11183"
     inkscape:cy="406.5864"
     inkscape:window-width="1920"
     inkscape:window-height="1008"
     inkscape:window-x="-8"
     inkscape:window-y="-8"
     inkscape:window-maximized="1"
     inkscape:current-layer="svg7" />
  <defs
     id="defs2" />
  <ellipse
     cx="339.00562"
     cy="344.8197"
     rx="270.845"
     ry="333.77802"
     fill="none"
     id="ellipse6"
     style="display:none" />
  <ellipse
     cx="1179.0485"
     cy="357.54764"
     rx="270.845"
     ry="333.77802"
     fill="none"
     id="ellipse4"
     style="display:inline;fill:#ccf4cc" />
  <path
     id="Pfad_1343"
     data-name="Pfad 1343"
     d="m 1169.1205,497.3026 c 0.889,-1.02 -11.563,-14.287 -21.347,-14.287 -9.784,0 -14.723,4.691 -12.453,8.164 5.337,8.164 12.86,2.385 18.679,3.061 5.819,0.676 14.231,4.083 15.121,3.062 z"
     fill="#42210b"
     style="display:inline" />
  <path
     id="Pfad_1347"
     data-name="Pfad 1347"
     d="m 1226.1045,551.9576 a 150.4,150.4 0 0 0 -28.7,-5.615 c -5.937,-0.7 -8.392,4.913 -18.218,6.154 -9.826,-1.241 -12.281,-6.856 -18.218,-6.154 a 150.4,150.4 0 0 0 -28.7,5.615 c -12.732,3.694 -34.5,14.739 -34.5,17.546 0,2.807 47.886,-4.979 65.308,-0.7 a 62.715,62.715 0 0 0 32.224,0 c 17.422,-4.277 65.308,3.509 65.308,0.7 0,-2.809 -21.772,-13.852 -34.504,-17.546 z"
     fill="#f79885"
     style="display:inline;fill:#b398c5;fill-opacity:1" />
  <path
     id="Pfad_1348"
     data-name="Pfad 1348"
     d="m 1260.6035,574.7196 c -1.32,-1.916 -43.957,-0.191 -61.768,3.26 a 134.221,134.221 0 0 1 -19.652,2.3 134.221,134.221 0 0 1 -19.652,-2.3 c -17.811,-3.451 -60.448,-5.176 -61.768,-3.26 -1.32,1.916 11.215,15.337 15.173,18.788 a 90.754,90.754 0 0 0 41.559,19.841 119.053,119.053 0 0 0 49.376,0 90.753,90.753 0 0 0 41.559,-19.841 c 3.953,-3.451 16.492,-16.871 15.173,-18.788 z"
     fill="#f79885"
     style="display:inline;fill:#00d023;fill-opacity:1" />
  <path
     id="Pfad_1349"
     data-name="Pfad 1349"
     d="m 1187.9275,497.3026 c -0.89,-1.02 11.563,-14.287 21.347,-14.287 9.784,0 14.722,4.691 12.452,8.164 -5.336,8.164 -12.86,2.385 -18.678,3.061 -5.818,0.676 -14.232,4.083 -15.121,3.062 z"
     fill="#42210b"
     style="display:inline" />
  <path
     d="m 1221.3644,238.90204 c -7.8804,4.37968 -21.1218,10.1379 -17.3041,19.08479 3.1627,7.40979 16.0856,5.25487 23.9515,2.78263 7.866,-2.47222 7.7424,-7.23175 20.2968,-10.64362 12.5544,-3.41191 40.2563,3.45156 74.4267,19.04634 16.6942,7.61893 33.1362,22.46807 44.2152,30.84099 9.6808,7.31622 18.3558,-4.58056 11.1166,-17.22774 -7.6216,-13.31526 -89.6854,-45.98577 -114.1721,-49.40331 -24.4867,-3.41753 -34.6502,1.14023 -42.5306,5.51992 z"
     style="display:inline;fill:#e6b9cf;fill-opacity:1;stroke-width:1.0262"
     id="path181"
     sodipodi:nodetypes="zczzssszz" />
  <path
     d="m 1122.9668,240.38833 c 7.9022,5.01245 21.2352,11.72769 17.0269,21.10205 -3.4862,7.76379 -16.6175,4.90456 -24.5704,1.92671 -7.953,-2.97783 -7.6633,-8.04766 -20.3749,-12.23117 -12.7115,-4.18356 -41.2544,1.93166 -76.7071,17.07619 -17.3208,7.39887 -34.63186,22.51845 -46.24035,30.96533 -3.25224,2.36648 -6.33101,2.63141 -8.75511,1.46501 -5.13654,-2.47154 -7.33359,-11.3697 -2.0129,-20.31806 8.24537,-13.86711 93.22426,-45.13924 118.36336,-47.71963 25.1392,-2.58038 35.3683,2.7211 43.2705,7.73357 z"
     style="display:inline;fill:#e6b9cf;fill-opacity:1;stroke-width:1.07193"
     id="path278"
     sodipodi:nodetypes="zczzsssszz" />
  <path
     id="path179"
     style="display:inline;fill:#e6b9cf;fill-opacity:1"
     d="m 1184.6444,12.735431 c -261.78646,-1.4 -344.60154,193.317479 -344.60155,405.664059 0,219.19956 53.51139,316.86695 103.26504,358.10594 14.10596,-13.52847 25.78049,-41.04391 25.78049,-41.04391 0,0 39.16592,16.0682 74.48962,25.29733 3.682,-7.1284 -52.70312,-110.06938 -70.74638,-132.01277 -6.3056,-12.6112 2.52815,-99.78136 5.57078,-161.9734 1.61205,-32.95066 -25.03008,-75.98693 -21.39529,-116.23692 2.63286,-29.15503 31.11068,-52.65525 44.91859,-81.80619 18.5148,-39.08812 9.9863,-129.61836 63.6152,-158.0293 33.9043,-19.386239 47.7461,-10.41211 47.7461,-10.41211 l 7.3281,-6.298829 -1.6152,2.7793 c 5.2169,-7.78647 24.7765,-25.25238 88.2539,6.640629 28.9308,14.53575 81.1759,58.78211 99.9721,79.7291 18.7409,20.88537 40.6371,93.5424 53.2572,115.43555 13.7493,23.85211 25.7539,54.50887 6.3275,139.92443 -4.8505,21.32719 16.3841,93.01575 17.324,119.81717 -3.3354,36.60638 -37.1672,101.89994 -41.6796,110.92382 -9.558,19.11498 -41.2579,80.3634 -54.5454,107.28681 4.211,4.91298 61.9775,-33.4688 77.4185,-45.39978 6.9547,16.16339 8.2713,23.19602 22.8497,37.10277 35.7916,-20.03438 125.8924,-130.42408 125.8924,-349.62066 0,-208.19358 -79.6215,-399.436669 -329.4609,-405.513669 z m -65.6445,84.0332 c -1.2122,1.80921 -1.8965,3.261719 -1.8965,3.261719 z"
     sodipodi:nodetypes="csccccsssccccsssscccccsccccc" />
  <path
     d="m 1297.3769,329.36629 c -14.856,0 -26.8985,16.04145 -26.8985,30.89843 a 26.9,26.9 0 1 0 53.7989,0 c 0,-14.85698 -12.0445,-30.89843 -26.9004,-30.89843 z"
     style="fill:#262100"
     id="path54" />
  <path
     d="m 1295.7421,302.61629 c -11.887,0.18442 -23.2727,5.74905 -32.8887,12.40625 -10.9897,7.60821 -19.7543,16.73725 -24.289,21.27148 -0.5857,0.58576 -0.5857,1.53534 0,2.1211 0.5857,0.58563 1.5353,0.58563 2.1211,0 4.5891,-4.58876 13.1954,-13.53229 23.875,-20.92579 10.6794,-7.39348 23.3473,-13.1427 35.9472,-11.63086 20.8115,2.49711 32.5629,11.97411 39.4238,19.51954 4.1822,4.62467 7.7268,9.78856 10.5391,15.35351 0.3737,0.73952 1.2762,1.03599 2.0156,0.66211 0.7396,-0.37369 1.036,-1.2762 0.6621,-2.01562 -2.9337,-5.80517 -6.6311,-11.19159 -10.9941,-16.01563 v -0.002 c -7.1749,-7.89054 -19.7106,-17.89159 -41.2871,-20.48047 -1.7148,-0.20577 -3.425,-0.29002 -5.1231,-0.26367 z"
     style="fill:#262100;stroke-linecap:round;stroke-miterlimit:10"
     id="path17" />
  <path
     d="m 1301.1835,364.9366 a 5,5 0 0 0 -5,5 5,5 0 0 0 5,5 5,5 0 0 0 5,-5 5,5 0 0 0 -5,-5 z"
     style="fill:#ffffff"
     id="path51" />
  <path
     d="m 1250.1835,329.9366 1.6504,3.24609 11.1113,9.05469 1.3828,-1.26172 c 0,0 -2.6767,-0.23489 -3.7207,-1.71289 -0.717,-1.016 -5.6833,-4.58653 -8.0293,-6.76953 -1.066,-0.993 -2.3945,-2.55664 -2.3945,-2.55664 z"
     style="fill:#262100"
     id="path50" />
  <path
     d="m 1260.8554,311.7491 1.1797,4.30664 10.414,18.08008 2.3028,-1.2168 c 0,0 -3.7118,-2.54021 -4.4688,-5.0332 -0.521,-1.714 -4.862,-6.27657 -7.248,-11.85156 -0.814,-1.903 -2.1797,-4.28516 -2.1797,-4.28516 z"
     style="fill:#262100"
     id="path49" />
  <path
     d="m 1241.9862,343.54793 1.8164,2.45898 11.752,9.16602 1.4805,-1.25781 c 0,0 -3.351,-0.80685 -4.459,-2.21485 -0.761,-0.969 -5.0215,-2.91993 -8.0215,-5.91992 -1.024,-1.024 -2.5684,-2.23242 -2.5684,-2.23242 z"
     style="fill:#262100"
     id="path48" />
  <path
     d="m 1246.1835,337.9366 1.6465,2.26562 10.6875,8.5 1.3594,-1.14648 c 0,0 -3.0586,-0.7625 -4.0586,-2.0625 -0.694,-0.895 -4.5758,-2.71129 -7.3008,-5.48828 -0.934,-0.948 -2.334,-2.06836 -2.334,-2.06836 z"
     style="fill:#262100"
     id="path47" />
  <path
     d="m 1270.1093,302.08113 2.0742,7.85547 9.5313,19.33789 2.9316,-1.06055 c 0,0 -3.8189,-2.32535 -4.4629,-5.27734 -0.443,-2.029 -5.817,-11.12301 -8,-16 -0.993,-2.218 -2.0742,-4.85547 -2.0742,-4.85547 z"
     style="fill:#262100"
     id="path46" />
  <path
     d="m 1281.5937,296.34871 1.5898,8.58789 7.3594,20.78711 3.2285,-0.61914 c 0,0 -4.2669,-3.07498 -4.5879,-6.16797 -0.221,-2.126 -4.288,-11.71501 -6,-17 -0.779,-2.404 -1.5898,-5.58789 -1.5898,-5.58789 z"
     style="fill:#262100"
     id="path45" />
  <path
     d="m 1295.1835,292.93465 -0.2363,9.19922 0.1074,23.71093 3.3027,-0.29883 c 0,0 -1.9675,-7.04355 -1.3535,-10.43554 0.42,-2.329 -1.2033,-12.06801 -1.2793,-18 0.022,-1.41071 -0.1607,-2.81714 -0.541,-4.17578 z"
     style="fill:#262100"
     id="path44" />
  <path
     d="m 1253.1835,319.9366 0.9668,3.08789 11.752,14.74023 1.7812,-1.36523 c 0,0 -3.533,-1.40489 -4.5,-3.46289 -0.665,-1.414 -5.65,-7.82201 -8,-11 -0.5405,-0.78188 -1.2181,-1.45947 -2,-2 z"
     style="fill:#262100"
     id="path43" />
  <path
     d="m 1344.1835,326.9366 c -0.6937,0.48553 -1.3145,1.06757 -1.8437,1.72852 -2.24,2.66999 -4.0986,4.45162 -4.7286,5.64062 -0.922,1.728 -7.2519,6.46094 -7.2519,6.46094 l 1.5,0.16992 6.5722,-5.90039 z"
     style="fill:#262100"
     id="path42" />
  <path
     d="m 1331.4511,306.60652 c -0.7345,0.80996 -1.3483,1.72171 -1.8223,2.70703 -2.079,4.049 -6.5991,10.25648 -7.0801,11.98047 -0.7,2.508 -4.5527,6.76563 -4.5527,6.76563 l 1.1875,0.87695 7,-12 z"
     style="fill:#262100"
     id="path41"
     inkscape:label="path41" />
  <path
     d="m 1320.2167,300.9366 c -0.6211,0.95965 -1.1013,2.0035 -1.4258,3.09961 -1.508,4.59999 -3.6074,10.90039 -4.6074,12.90039 -1.27,2.53999 -4.3164,8.5 -4.3164,8.5 l 2.3906,1.16406 6.9258,-20.66406 z"
     style="fill:#262100"
     id="path40" />
  <path
     d="m 1309.1835,294.9366 c -0.5763,1.13387 -0.9861,2.34489 -1.2168,3.5957 -1.116,5.23399 -4.2715,13.55337 -4.3125,15.69336 -0.059,3.112 -3.0391,8.98633 -3.0391,8.98633 l 2.5684,0.72461 4,-18 z"
     style="fill:#262100"
     id="path39" />
  <path
     d="m 1340.3593,316.9366 c 0,0 -2.1068,2.555 -3.1758,4 -2.35,3.17799 -5.8252,5.89941 -6.4902,7.31641 -0.967,2.05799 -4.834,5.14648 -4.834,5.14648 l 1.3242,0.53711 12.209,-13.91211 z"
     style="fill:#262100"
     id="path38" />
  <path
     d="m 1347.4374,337.77644 c 0,0 -1.9686,1.55436 -2.9746,2.44336 -2.211,1.954 -5.3783,3.53174 -6.0313,4.42774 -0.948,1.29999 -4.4746,3.09179 -4.4746,3.09179 l 1.127,0.44727 11.3535,-8.42383 z"
     style="fill:#262100"
     id="path37" />
  <path
     d="m 1353.0273,345.6573 c 0,0 -2.145,1.29969 -3.254,2.05469 -2.437,1.663 -5.7761,2.83363 -6.5351,3.64063 -1.1,1.17399 -4.8262,2.51171 -4.8262,2.51171 l 1.0586,0.58399 12.3164,-6.94336 z"
     style="fill:#262100"
     id="path36" />
  <path
     d="m 1010.3124,329.9366 1.6504,3.24609 11.1133,9.05469 1.3808,-1.26172 c 0,0 -2.6777,-0.23489 -3.7207,-1.71289 -0.718,-1.016 -5.6843,-4.58653 -8.0293,-6.76953 -1.067,-0.993 -2.3945,-2.55664 -2.3945,-2.55664 z"
     style="fill:#262100"
     id="path35" />
  <path
     d="m 1020.9901,311.7491 1.1797,4.30664 10.4141,18.08008 2.3027,-1.2168 c 0,0 -3.7107,-2.54021 -4.4687,-5.0332 -0.521,-1.714 -4.8621,-6.27657 -7.2481,-11.85156 -0.815,-1.903 -2.1797,-4.28516 -2.1797,-4.28516 z"
     style="fill:#262100"
     id="path34" />
  <path
     d="m 1002.1151,343.54793 1.8164,2.45898 11.752,9.16602 1.4804,-1.25781 c 0,0 -3.3509,-0.80685 -4.4589,-2.21485 -0.761,-0.969 -5.0235,-2.91993 -8.0235,-5.91992 -1.024,-1.024 -2.5664,-2.23242 -2.5664,-2.23242 z"
     style="fill:#262100"
     id="path33" />
  <path
     d="m 1006.3124,337.9366 1.6484,2.26562 10.6856,8.5 1.3613,-1.14648 c 0,0 -3.0556,-0.7625 -4.0606,-2.0625 -0.7,-0.895 -4.5738,-2.71129 -7.2988,-5.48828 -0.935,-0.948 -2.3359,-2.06836 -2.3359,-2.06836 z"
     style="fill:#262100"
     id="path32" />
  <path
     d="m 1030.2401,302.08113 2.0723,7.85547 9.5312,19.33789 2.9317,-1.06055 c 0,0 -3.8179,-2.32535 -4.4629,-5.27734 -0.443,-2.029 -5.817,-11.12301 -8,-16 -0.992,-2.218 -2.0723,-4.85547 -2.0723,-4.85547 z"
     style="fill:#262100"
     id="path31" />
  <path
     d="m 1041.7225,296.34871 1.5899,8.58789 7.3594,20.78711 3.2285,-0.61914 c 0,0 -4.2669,-3.07498 -4.5879,-6.16797 -0.221,-2.126 -4.287,-11.71501 -6,-17 -0.778,-2.404 -1.5899,-5.58789 -1.5899,-5.58789 z"
     style="fill:#262100"
     id="path30" />
  <path
     d="m 1055.3124,292.93465 -0.2363,9.19922 0.1074,23.71093 3.3027,-0.29883 c 0,0 -1.9675,-7.04355 -1.3535,-10.43554 0.42,-2.329 -1.2033,-12.06801 -1.2793,-18 0.022,-1.41071 -0.1606,-2.81715 -0.541,-4.17578 z"
     style="fill:#262100"
     id="path29" />
  <path
     d="m 1013.3163,319.9366 0.9668,3.08789 11.75,14.74023 1.7832,-1.36523 c 0,0 -3.533,-1.40489 -4.5,-3.46289 -0.664,-1.414 -5.65,-7.82201 -8,-11 -0.5403,-0.78212 -1.2179,-1.45976 -2,-2 z"
     style="fill:#262100"
     id="path28" />
  <path
     d="m 1104.3085,326.9366 c -0.6937,0.48547 -1.3146,1.06752 -1.8438,1.72852 -2.24,2.66999 -4.0985,4.45162 -4.7285,5.64062 -0.922,1.728 -7.2519,6.46094 -7.2519,6.46094 l 1.5,0.16992 6.5722,-5.90039 z"
     style="fill:#262100"
     id="path27" />
  <path
     d="m 1091.58,306.60652 c -0.7345,0.80997 -1.3483,1.72172 -1.8223,2.70703 -2.079,4.049 -6.6001,10.25648 -7.0801,11.98047 -0.706,2.508 -4.5527,6.76563 -4.5527,6.76563 l 1.1875,0.87695 7,-12 z"
     style="fill:#262100"
     id="path26" />
  <path
     d="m 1080.3456,300.9366 c -0.6209,0.95981 -1.101,2.00362 -1.4258,3.09961 -1.509,4.59999 -3.6074,10.90039 -4.6074,12.90039 -1.27,2.53999 -4.3164,8.5 -4.3164,8.5 l 2.3867,1.16406 6.9297,-20.66406 z"
     style="fill:#262100"
     id="path25" />
  <path
     d="m 1069.3124,294.9366 c -0.5753,1.13412 -0.9844,2.34509 -1.2149,3.5957 -1.116,5.23399 -4.2734,13.55337 -4.3144,15.69336 -0.059,3.112 -3.0371,8.98633 -3.0371,8.98633 l 2.5664,0.72461 4,-18 z"
     style="fill:#262100"
     id="path24" />
  <path
     d="m 1100.4843,316.9366 c 0,0 -2.1088,2.555 -3.1778,4 -2.349,3.17799 -5.8252,5.89941 -6.4902,7.31641 -0.966,2.05799 -4.832,5.14648 -4.832,5.14648 l 1.3281,0.53711 12.209,-13.91211 z"
     style="fill:#262100"
     id="path23" />
  <path
     d="m 1107.5663,337.77644 c 0,0 -1.9696,1.55436 -2.9746,2.44336 -2.211,1.954 -5.3793,3.53174 -6.0313,4.42774 -0.949,1.29999 -4.4765,3.09179 -4.4765,3.09179 l 1.1269,0.44727 11.3555,-8.42383 z"
     style="fill:#262100"
     id="path22" />
  <path
     d="m 1113.1581,345.6573 c 0,0 -2.1469,1.29969 -3.2559,2.05469 -2.437,1.663 -5.7761,2.83363 -6.5351,3.64063 -1.1,1.17399 -4.8262,2.51171 -4.8262,2.51171 l 1.0605,0.58399 12.3145,-6.94336 z"
     style="fill:#262100"
     id="path21" />
  <path
     d="m 1297.7499,322.27449 c -8.9841,0.0146 -18.3574,3.69512 -29.5664,12.66211 -5.441,4.353 -12.9992,14.99922 -19.2422,19.94922 -12.982,10.28799 -7.7206,6.31847 -16.1426,11.23047 -4.471,2.60999 -10.6394,1.39609 -10.9004,3.12109 v 0 c -0.1309,0.836 -1.1009,1.88242 0,2.23242 1.048,0.34 8.4041,5.32942 31.9571,-10.97656 18.247,-12.63299 21.1691,-22.6625 31.3281,-25.5625 6.122,-1.742 18.5125,-7.5546 35.3125,3.40039 15.977,10.42199 25.4272,38.12517 37.4082,37.20117 1.071,-0.082 4.0733,-0.53133 4.6113,-0.61133 4.298,-0.64199 15.5905,-2.32704 15.5645,-3.87304 -0.019,-1.194 -11.2642,-1.93519 -13.4492,-2.24219 -21.114,-2.963 -20.4504,-25.86923 -39.6504,-37.19922 -9.6545,-5.69549 -18.2503,-9.34665 -27.2344,-9.33203 z"
     style="fill:#262100"
     id="path20" />
  <path
     d="m 1058.3827,328.86629 c -14.856,0 -26.8984,16.04145 -26.8984,30.89843 a 26.9,26.9 0 1 0 53.7988,0 c 0,-14.85698 -12.0444,-30.89843 -26.9004,-30.89843 z"
     style="fill:#262100"
     id="path19" />
  <path
     d="m 1060.0175,302.11629 c -1.6982,-0.0263 -3.4062,0.0579 -5.1211,0.26367 -21.5755,2.58889 -34.1103,12.58993 -41.2852,20.48047 h -0 l -0,0.002 c -4.363,4.82404 -8.0604,10.21044 -10.9941,16.01563 a 1.5,1.5 0 0 0 0.6621,2.01562 1.5,1.5 0 0 0 2.0156,-0.66211 c 2.8121,-5.5646 6.3573,-10.72908 10.5391,-15.35351 l 0,-0.004 c 6.8615,-7.54483 18.6128,-17.01893 39.4199,-19.51563 12.5999,-1.51184 25.2676,4.23737 35.9472,11.63086 10.6797,7.39351 19.2844,16.3371 23.8731,20.92579 a 1.5,1.5 0 0 0 2.1211,0 1.5,1.5 0 0 0 0,-2.1211 c -4.5343,-4.5343 -13.2973,-13.66326 -24.2871,-21.27148 -9.6161,-6.65721 -21.0036,-12.22184 -32.8907,-12.40625 z"
     style="fill:#262100;stroke-linecap:round;stroke-miterlimit:10"
     id="path16" />
  <path
     d="m 1063.1835,364.9366 a 5,5 0 0 0 -5,5 5,5 0 0 0 5,5 5,5 0 0 0 5,-5 5,5 0 0 0 -5,-5 z"
     style="fill:#ffffff"
     id="path14" />
  <path
     d="m 1286.58,361.71004 a 3.5,3.5 0 0 0 -3.5,3.5 3.5,3.5 0 0 0 3.5,3.5 3.5,3.5 0 0 0 3.5,-3.5 3.5,3.5 0 0 0 -3.5,-3.5 z"
     style="fill:#ffffff"
     id="path12" />
  <path
     d="m 1048.58,361.71004 a 3.5,3.5 0 0 0 -3.5,3.5 3.5,3.5 0 0 0 3.5,3.5 3.5,3.5 0 0 0 3.5,-3.5 3.5,3.5 0 0 0 -3.5,-3.5 z"
     style="fill:#ffffff"
     id="path11" />
  <path
     d="m 1058.0155,321.7784 c -8.9841,-0.0146 -17.5799,3.63653 -27.2344,9.33203 -19.1999,11.32999 -18.5374,34.23622 -39.65035,37.19922 -2.186,0.307 -13.43218,1.04819 -13.45118,2.24218 -0.025,1.546 11.26841,3.23105 15.56641,3.87305 0.53701,0.08 3.54034,0.52933 4.61133,0.61133 11.98099,0.924 21.42929,-26.77918 37.40629,-37.20117 16.7999,-10.95499 29.1924,-5.14239 35.3144,-3.40039 10.159,2.89999 13.0801,12.92951 31.3281,25.5625 23.553,16.30598 30.9091,11.31656 31.9571,10.97656 1.098,-0.354 0.127,-1.40033 0,-2.23633 -0.261,-1.725 -6.4294,-0.5111 -10.9004,-3.12109 -8.422,-4.912 -3.1597,-0.94248 -16.1407,-11.23047 -6.2409,-4.946 -13.8011,-15.59232 -19.2421,-19.94531 -11.209,-8.96699 -20.5804,-12.64749 -29.5645,-12.66211 z"
     style="display:inline;fill:#262100"
     id="path10" />
  <path
     id="path4089-4-21-5-9"
     style="display:inline;fill:#ccf4cc;fill-opacity:1;stroke:none;stroke-width:0.0644805;stroke-opacity:0.4"
     d="m 373.3938,183.89967 c -0.70949,-0.008 -1.32867,0.0579 -1.76152,0.14614 -1.61421,0.3292 -2.74913,0.93882 -3.73198,1.03082 v 0.009 c -0.81302,-0.22474 -1.75758,-0.63146 -2.97623,-0.87998 -1.15407,-0.23536 -3.63397,-0.30088 -5.61772,0.70083 -2.4886,1.16931 -2.13994,1.88792 -3.61729,3.39263 -1.47735,1.50469 -4.08596,1.10817 -5.22015,3.75874 -1.13419,2.65058 -0.52097,3.09548 -1.17531,5.81411 -0.65445,2.71863 -2.33581,2.37486 -2.98412,5.46998 -0.64821,3.09511 0.75137,4.68004 -0.0348,6.47566 -0.7859,1.79564 -0.83757,0.62526 -2.19518,3.3989 -1.35771,2.77365 -0.32191,6.83083 0.74008,8.38961 1.06192,1.55878 3.1044,1.40927 3.87344,1.26182 1.07912,0.68572 2.38087,2.6228 4.88697,2.62892 2.25692,0.006 2.52185,-0.15109 3.98665,-0.87683 a 17.52866,21.586604 0 0 0 11.39722,5.19813 17.52866,21.586604 0 0 0 11.0437,-4.87128 c 0.75613,0.32384 1.30807,0.39533 2.96826,0.39127 2.50619,-0.007 3.80793,-1.94321 4.88706,-2.62892 0.76904,0.14745 2.81152,0.29696 3.87343,-1.26182 1.062,-1.55878 2.09781,-5.61596 0.7401,-8.38961 -1.35763,-2.77365 -1.40929,-1.60327 -2.19519,-3.3989 -0.78589,-1.79563 0.61368,-3.38054 -0.0348,-6.47565 -0.6483,-3.09513 -2.32966,-2.75135 -2.98402,-5.47 -0.65443,-2.71862 -0.0412,-3.16353 -1.1754,-5.8141 -1.13419,-2.65057 -3.7428,-2.25404 -5.22015,-3.75875 -1.47735,-1.5047 -1.1287,-2.22331 -3.61729,-3.39261 -1.23981,-0.62608 -2.67374,-0.83541 -3.85621,-0.84698 z" />
  <path
     id="path2961-8-5-2-1"
     style="display:inline;fill:#ccf4cc;fill-opacity:1;stroke:none;stroke-width:0.0624688;stroke-opacity:0.4"
     d="m 183.47384,391.32192 -0.0302,0.0268 c -16.08238,-0.0575 -20.4415,12.72617 -21.03292,26.14464 -0.62238,14.12017 -2.17942,19.29042 2.11979,21.77936 0.49486,0.28649 2.45673,1.43025 3.45232,0.57041 0.99567,0.76931 3.78428,1.45075 5.39455,0.53898 0.23745,-0.277 -0.89592,-5.61927 -1.21471,-7.66991 -0.022,-0.6039 -0.46151,-2.06751 -0.9004,-4.38729 a 16.451271,21.58761 0 0 0 11.96298,6.81822 16.451271,21.58761 0 0 0 12.36835,-7.42321 c -0.2652,2.29985 -0.52344,3.91068 -0.55477,4.99228 -0.31879,2.05064 -1.45372,7.39291 -1.21618,7.66991 1.61018,0.91177 4.40045,0.23033 5.39612,-0.53898 0.99549,0.85984 2.95745,-0.28392 3.45231,-0.57041 4.29922,-2.48894 2.74052,-7.65919 2.11824,-21.77936 -0.59188,-13.42739 -5.16363,-25.62095 -21.06755,-26.1352 v -0.0126 c -0.0687,-8.9e-4 -0.13394,0.002 -0.20273,0.002 -0.0165,-4.3e-4 -0.032,-9.1e-4 -0.0485,-0.002 z m 0.2498,0.0236 c 0,2e-5 0,-2e-5 0.01,0 v -0.0236 z" />
  <path
     id="path4090-8-3-5-3-2"
     style="display:inline;fill:#ccf4cc;fill-opacity:1;stroke:none;stroke-width:0.0644805;stroke-opacity:0.4"
     d="m 430.16608,467.77737 c -16.88009,-0.0902 -22.21933,12.46503 -22.21933,26.15722 0,14.13407 1.53846,15.57246 5.83768,18.06145 0.49485,0.2865 2.30739,1.1317 3.30298,0.27186 0.99559,0.76932 3.71192,1.67446 3.98345,1.35767 1.04094,-1.21556 -1.39325,-0.76795 -3.70688,-8.48546 a 17.52866,21.586604 0 0 0 12.44062,6.4568 17.52866,21.586604 0 0 0 11.77436,-5.63497 c -1.71122,4.8581 -3.85015,7.03044 -3.2951,7.67778 0.27151,0.31679 2.98621,-0.58837 3.9818,-1.35767 0.99558,0.85984 2.80977,0.0147 3.30463,-0.27186 4.29922,-2.48894 5.83767,-3.92758 5.83767,-18.06146 0,-13.4244 -5.13376,-25.75594 -21.24344,-26.1478 z" />
</svg>
