<?xml version="1.0" encoding="UTF-8" standalone="no"?>
<svg
   width="1920"
   height="700"
   viewBox="0 0 1920 700"
   version="1.1"
   id="svg8"
   sodipodi:docname="intro-DV-orange-path2.svg"
   inkscape:version="1.3 (0e150ed6c4, 2023-07-21)"
   xmlns:inkscape="http://www.inkscape.org/namespaces/inkscape"
   xmlns:sodipodi="http://sodipodi.sourceforge.net/DTD/sodipodi-0.dtd"
   xmlns="http://www.w3.org/2000/svg"
   xmlns:svg="http://www.w3.org/2000/svg">
  <sodipodi:namedview
     id="namedview8"
     pagecolor="#505050"
     bordercolor="#eeeeee"
     borderopacity="1"
     inkscape:showpageshadow="0"
     inkscape:pageopacity="0"
     inkscape:pagecheckerboard="0"
     inkscape:deskcolor="#d1d1d1"
     inkscape:zoom="0.88020836"
     inkscape:cx="798.10649"
     inkscape:cy="465.23076"
     inkscape:window-width="1920"
     inkscape:window-height="1008"
     inkscape:window-x="-8"
     inkscape:window-y="-8"
     inkscape:window-maximized="1"
     inkscape:current-layer="Intro"
     showguides="true">
    <sodipodi:guide
       position="1007.7159,247.858"
       orientation="0,-1"
       id="guide1"
       inkscape:locked="false" />
    <sodipodi:guide
       position="1366.7219,380.78108"
       orientation="0,-1"
       id="guide47"
       inkscape:locked="false" />
    <sodipodi:guide
       position="608.94673,-58.91122"
       orientation="0,-1"
       id="guide48"
       inkscape:locked="false" />
    <sodipodi:guide
       position="1246.2958,319.43197"
       orientation="0,-1"
       id="guide49"
       inkscape:locked="false" />
    <sodipodi:guide
       position="1206.617,372.623"
       orientation="0,-1"
       id="guide50"
       inkscape:locked="false" />
  </sodipodi:namedview>
  <defs
     id="defs1">
    <rect
       x="1367.8579"
       y="368.09467"
       width="395.36093"
       height="77.254433"
       id="rect2" />
    <clipPath
       id="clip-Intro">
      <rect
         width="1920"
         height="1080"
         id="rect1"
         x="0"
         y="0" />
    </clipPath>
    <rect
       x="1367.8579"
       y="368.09467"
       width="395.36093"
       height="77.254433"
       id="rect2-0" />
  </defs>
  <g
     id="Intro"
     clip-path="url(#clip-Intro)">
    <path
       id="Pfad_1358"
       data-name="Pfad 1358"
       d="m 614.411,242.843 c 0,0 98.463,-32.308 148.473,-65.113 50.01,-32.805 100.02,-54.011 142.441,-44.237 42.421,9.774 117.728,47.551 171.63,67.267 53.902,19.716 235.067,42.083 235.067,42.083 z"
       fill="rgba(106,73,143,0.81)"
       style="fill:#00d023;fill-opacity:0.666667" />
    <path
       id="path48-2"
       style="display:inline;opacity:0.228992;fill:#6599ff;fill-opacity:0.8;stroke-width:1.467;stroke-linecap:round;stroke-linejoin:round;stroke-dashoffset:0.9578;paint-order:stroke fill markers"
       d="m 1544.8477,211.15234 c -69.749,-0.0255 -192.888,6.0289 -267.2832,12.28321 C 967.6062,249.49334 921.35164,240.63596 774.20703,235.86914 627.06239,231.10234 542.40489,221.81895 357.35938,219.43555 259.97122,218.18118 92.22498,220.83238 -1.4355469,232.75 l 0.033203,12.06836 c 32.1925329,3.19671 69.9520229,-0.51627 99.8945319,-0.89063 l 127.794922,8.9043 c 26.43695,-1.87768 100.20529,-9.98655 123.71484,-8.83594 23.50956,1.15061 99.32423,10.57974 144.85743,9.43946 45.53319,-1.14028 89.84956,-11.25058 120.19335,-8.83399 24.65418,1.96343 591.37507,-2.3872 697.70507,-1.38672 55.7082,0.52417 69.5671,-7.97764 146.3418,-8.44726 25.024,-0.15307 94.0422,4.13563 179.0449,11.13281 77.8505,6.40842 92.2273,-2.20534 150.7539,-0.77344 52.0427,1.27326 96.6285,0.2945 129.4668,4.3418 l 9.6133,-6.14844 c -78.5764,-13.14303 -219.7693,-32.10835 -383.1308,-32.16797 z"
       sodipodi:nodetypes="ssssccccsssssssccs" />
    <path
       style="font-size:55px;font-family:'Ink Free';-inkscape-font-specification:'Ink Free';letter-spacing:0.035em;fill:#ffffff"
       d="m 320.68198,445.46601 q -3.355,2.97 -6.93,5.61 -3.52,2.64 -5.885,3.74 -0.165,0.605 -0.495,0.88 -0.33,0.33 -0.99,0.33 -0.495,0 -0.715,-0.22 -0.22,-0.165 -0.22,-0.66 0,-0.33 0.22,-2.75 0.275,-2.42 0.275,-5.665 0,-5.5 -0.165,-9.955 -0.11,-5.17 -0.11,-7.26 0,-3.245 0.66,-5.335 0.495,-1.32 1.76,-1.32 0.44,0 0.77,0.165 0.385,0.165 0.385,0.495 -0.055,0.275 -0.605,1.925 -0.495,1.65 -0.495,3.135 0,4.125 0.165,9.02 0.11,6.27 0.11,8.69 0,4.125 -0.055,4.95 1.98,-0.77 5.335,-3.19 3.41,-2.42 5.72,-4.4 4.785,-4.29 6.985,-7.7 2.2,-3.41 2.2,-7.095 0,-4.455 -5.61,-6.105 -5.555,-1.65 -14.575,-1.65 -2.75,0 -7.37,0.66 -0.88,0.055 -2.75,0.55 -0.825,0.275 -1.155,0.275 -0.44,0 -0.825,-0.715 -0.44,-0.715 -0.44,-1.43 0,-0.275 0.385,-0.495 0.385,-0.275 1.21,-0.385 3.3,-0.44 5.61,-0.66 2.365,-0.22 5.5,-0.22 10.01,0 16.28,2.255 6.325,2.255 6.325,7.645 0,4.29 -2.475,8.14 -2.475,3.85 -8.03,8.745 z m 33.60496,-12.705 q -0.385,0 -0.77,-0.33 -0.33,-0.33 -0.77,-0.935 -0.385,-0.55 -1.045,-0.935 -0.605,-0.385 -1.265,-0.385 -1.595,0 -4.29,4.235 -2.695,4.18 -5.28,10.56 0.055,1.265 0.165,3.19 0.165,1.925 0.22,2.86 l 0.165,2.2 q 0,0.77 -0.33,1.32 -0.33,0.605 -1.21,0.605 -0.935,0 -1.21,-2.475 -0.275,-2.53 -0.33,-7.315 -0.055,-1.21 -0.11,-3.465 0,-2.255 -0.11,-5.39 -0.165,-4.73 -0.165,-6.765 0,-1.265 1.54,-1.265 0.935,0 1.1,0.825 0.22,0.77 0.22,3.025 v 8.745 q 1.65,-4.235 3.575,-7.315 1.925,-3.08 3.74,-4.675 1.87,-1.65 3.3,-1.65 1.21,0 2.31,0.55 1.1,0.55 1.76,1.43 0.66,0.825 0.66,1.595 0,0.495 -0.715,1.155 -0.66,0.605 -1.155,0.605 z m 14.02498,21.78 q -3.685,0 -5.445,-2.035 -1.76,-2.035 -1.76,-5.06 0,-2.64 0.935,-6.545 0.99,-3.905 2.75,-6.985 0.11,-0.22 0.88,-1.595 0.825,-1.43 1.815,-2.145 0.99,-0.77 2.09,-0.77 0.495,0 0.88,0.275 0.44,0.22 0.44,0.605 0,0.11 -0.33,0.55 -0.275,0.385 -0.44,0.605 -1.87,2.255 -3.025,4.455 -1.54,2.805 -2.42,5.555 -0.825,2.75 -0.825,5.995 0,4.345 5.28,4.345 2.475,0 4.565,-1.43 2.145,-1.43 3.41,-3.465 1.265,-2.09 1.265,-3.795 0,-1.925 -1.265,-3.355 -1.265,-1.43 -3.465,-3.025 -1.43,-1.045 -2.09,-1.705 -0.66,-0.66 -0.66,-1.1 0,-0.66 0.935,-1.045 0.935,-0.44 2.2,-0.44 0.715,0 0.935,0.11 0.22,0.055 0.22,0.275 0,0.11 -0.22,0.385 -0.165,0.22 -0.165,0.385 0,0.165 1.1,1.1 2.2,1.815 3.685,3.685 1.485,1.87 1.485,4.4 0,2.145 -1.595,4.95 -1.595,2.805 -4.51,4.84 -2.915,1.98 -6.655,1.98 z m 45.15497,-0.055 q -1.65,0 -3.135,-3.19 -1.485,-3.19 -2.475,-7.7 -0.935,-4.51 -1.155,-8.195 -1.485,2.86 -3.19,6.49 -1.705,3.575 -2.695,6.105 -1.485,3.905 -2.64,7.59 -0.055,0.11 -0.165,0.495 -0.11,0.44 -0.33,0.605 -0.165,0.165 -0.55,0.165 -0.825,0 -1.265,-0.385 -0.385,-0.33 -0.715,-1.1 l -0.44,-2.255 q -0.99,-5.39 -2.09,-10.23 -1.21,-5.005 -2.475,-8.25 -1.265,-3.245 -1.925,-3.245 -0.22,0 -0.66,0.385 -0.44,0.33 -0.825,0.55 -0.385,0.22 -0.66,0.11 -0.66,-0.33 -0.66,-0.77 0,-0.44 0.66,-1.375 0.66,-0.935 1.485,-1.65 0.88,-0.77 1.54,-0.77 0.495,0 0.825,0.275 0.385,0.22 0.77,0.715 0.715,0.935 1.98,4.4 1.265,3.41 2.31,8.305 l 2.255,9.625 q 2.53,-7.04 4.62,-11.66 2.145,-4.675 4.84,-9.68 1.045,-1.87 2.2,-1.87 0.77,0 1.265,0.55 0.495,0.55 0.495,0.88 0,0.22 -0.275,0.495 -0.275,0.275 -0.44,0.55 -0.44,0.605 -0.715,1.375 -0.22,0.77 -0.22,2.365 0,1.925 0.66,6.05 0.715,4.07 1.87,7.315 1.21,3.245 2.585,3.245 0.825,0 2.035,-2.75 1.21,-2.75 2.09,-6.765 0.935,-4.07 0.935,-7.81 0,-0.77 -0.77,-1.76 -0.605,-0.825 -0.605,-1.21 0,-0.33 0.495,-0.935 0.55,-0.66 1.1,-0.66 0.715,0 1.32,1.155 0.66,1.155 0.66,2.31 0,5.61 -1.485,10.725 -1.43,5.06 -3.355,8.25 -1.925,3.135 -3.08,3.135 z m 21.17496,1.54 q -2.365,0 -3.19,-0.44 -0.825,-0.44 -0.825,-1.21 0,-0.495 1.265,-1.705 1.265,-1.265 1.705,-1.265 0.66,0 0.66,0.275 0,0.22 -0.275,0.44 -0.275,0.22 -0.275,0.385 0,0.22 0.66,0.44 0.715,0.22 1.705,0.22 2.31,0 4.62,-0.825 2.365,-0.88 3.85,-2.255 1.485,-1.375 1.485,-2.915 0,-1.485 -0.935,-2.365 -0.935,-0.88 -2.365,-1.265 -1.375,-0.44 -4.675,-1.21 -3.63,-0.825 -5.665,-1.43 -1.98,-0.66 -3.19,-1.595 -1.21,-0.99 -1.21,-2.475 0,-2.64 2.585,-4.84 2.585,-2.2 5.94,-3.465 3.355,-1.265 5.17,-1.265 1.87,0 1.87,1.1 0,0.66 -0.44,1.485 -0.44,0.77 -1.32,0.77 -0.33,0 -0.715,-0.22 -0.385,-0.275 -0.77,-0.275 -1.1,0 -3.465,0.715 -2.365,0.715 -4.29,2.145 -1.925,1.43 -1.925,3.465 0,1.32 1.485,1.98 1.54,0.605 5.665,1.54 0.495,0.165 0.99,0.275 0.495,0.055 0.88,0.165 4.235,0.99 6.49,2.255 2.255,1.265 2.255,3.795 0,2.42 -1.98,4.675 -1.925,2.2 -5.115,3.52 -3.19,1.375 -6.655,1.375 z m 22.16499,-35.475 q -0.935,0 -1.925,-0.77 -0.935,-0.77 -0.935,-1.265 0,-0.605 0.55,-1.155 0.605,-0.55 1.21,-0.55 0.825,0.275 1.375,0.88 0.44,0.44 0.99,1.155 0.55,0.715 0.55,0.88 0,0.825 -1.815,0.825 z m 1.65,34.87 q -0.77,-0.055 -1.155,-2.475 -0.33,-2.42 -0.715,-9.185 -0.22,-4.455 -0.385,-8.69 -0.165,-4.29 -0.22,-6.6 0,-0.605 0.165,-0.88 0.22,-0.33 0.77,-0.33 1.265,0 1.595,1.045 0.33,1.045 0.33,4.015 l -0.055,6.49 q 0,5.555 0.33,8.91 0,0.165 0.495,3.52 0.385,2.31 0.385,3.08 0,0.55 -0.495,0.825 -0.44,0.33 -1.045,0.275 z m 27.44503,0.715 q -0.55,0 -0.935,-0.275 -0.385,-0.22 -0.385,-0.66 0,-2.255 0.33,-6.985 0.33,-5.06 0.33,-8.415 0,-3.245 -0.22,-5.28 -0.165,-2.09 -0.88,-2.09 -1.87,0 -4.125,4.675 -2.2,4.62 -5.06,12.21 l -0.825,2.2 q -0.22,0.55 -0.77,0.88 -0.495,0.33 -1.045,0.33 -0.66,0 -0.88,-0.11 -0.22,-0.11 -0.275,-0.66 l -0.44,-4.51 -0.825,-7.92 q -0.385,-4.73 -0.935,-8.25 -0.165,-0.825 -0.165,-1.265 0,-0.825 0.715,-1.32 0.715,-0.55 1.65,-0.55 0.55,0 0.77,2.64 0.275,2.64 0.55,8.525 l 0.22,2.915 q 0.44,5.555 0.495,7.04 0.165,-0.33 0.275,-0.715 0.165,-0.44 0.385,-0.935 2.97,-7.7 5.555,-12.815 2.64,-5.17 5.06,-5.17 1.705,0 2.31,2.915 0.66,2.86 0.825,7.37 0.165,5.005 0.165,14.63 0,0.66 -0.55,1.1 -0.55,0.495 -1.32,0.495 z m 31.40494,-15.18 q 0,0.99 -1.485,4.345 -1.43,3.355 -4.4,6.215 -2.915,2.86 -7.205,2.86 -3.52,0 -5.885,-2.2 -2.365,-2.2 -2.365,-6.765 0,-4.29 1.98,-8.47 1.98,-4.235 5.17,-6.875 3.19,-2.695 6.6,-2.695 2.035,0 3.41,0.935 1.43,0.88 1.43,2.585 0,1.925 -2.2,3.74 -2.145,1.815 -5.61,3.19 -3.465,1.375 -7.15,1.98 -0.66,2.53 -0.66,4.95 0,3.19 1.485,4.95 1.54,1.76 4.345,1.76 4.235,0 6.875,-3.025 2.64,-3.025 4.4,-6.82 0.11,-0.22 0.385,-0.825 0.275,-0.66 0.495,-0.66 0.385,0 0.385,0.825 z m -8.25,-11.33 q -2.09,0 -4.015,1.375 -1.925,1.375 -3.245,3.3 -1.265,1.925 -1.65,3.41 2.53,-0.275 5.335,-1.43 2.805,-1.155 4.675,-2.53 1.925,-1.375 1.925,-2.255 0,-0.88 -0.935,-1.375 -0.88,-0.495 -2.09,-0.495 z m 20.57004,26.4 q -2.365,0 -3.19,-0.44 -0.825,-0.44 -0.825,-1.21 0,-0.495 1.265,-1.705 1.265,-1.265 1.705,-1.265 0.66,0 0.66,0.275 0,0.22 -0.275,0.44 -0.275,0.22 -0.275,0.385 0,0.22 0.66,0.44 0.715,0.22 1.705,0.22 2.31,0 4.62,-0.825 2.365,-0.88 3.85,-2.255 1.485,-1.375 1.485,-2.915 0,-1.485 -0.935,-2.365 -0.935,-0.88 -2.365,-1.265 -1.375,-0.44 -4.675,-1.21 -3.63,-0.825 -5.665,-1.43 -1.98,-0.66 -3.19,-1.595 -1.21,-0.99 -1.21,-2.475 0,-2.64 2.585,-4.84 2.585,-2.2 5.94,-3.465 3.355,-1.265 5.17,-1.265 1.87,0 1.87,1.1 0,0.66 -0.44,1.485 -0.44,0.77 -1.32,0.77 -0.33,0 -0.715,-0.22 -0.385,-0.275 -0.77,-0.275 -1.1,0 -3.465,0.715 -2.365,0.715 -4.29,2.145 -1.925,1.43 -1.925,3.465 0,1.32 1.485,1.98 1.54,0.605 5.665,1.54 0.495,0.165 0.99,0.275 0.495,0.055 0.88,0.165 4.235,0.99 6.49,2.255 2.255,1.265 2.255,3.795 0,2.42 -1.98,4.675 -1.925,2.2 -5.115,3.52 -3.19,1.375 -6.655,1.375 z m 26.39998,0 q -2.365,0 -3.19,-0.44 -0.825,-0.44 -0.825,-1.21 0,-0.495 1.265,-1.705 1.265,-1.265 1.705,-1.265 0.66,0 0.66,0.275 0,0.22 -0.275,0.44 -0.275,0.22 -0.275,0.385 0,0.22 0.66,0.44 0.715,0.22 1.705,0.22 2.31,0 4.62,-0.825 2.365,-0.88 3.85,-2.255 1.485,-1.375 1.485,-2.915 0,-1.485 -0.935,-2.365 -0.935,-0.88 -2.365,-1.265 -1.375,-0.44 -4.675,-1.21 -3.63,-0.825 -5.665,-1.43 -1.98,-0.66 -3.19,-1.595 -1.21,-0.99 -1.21,-2.475 0,-2.64 2.585,-4.84 2.585,-2.2 5.94,-3.465 3.355,-1.265 5.17,-1.265 1.87,0 1.87,1.1 0,0.66 -0.44,1.485 -0.44,0.77 -1.32,0.77 -0.33,0 -0.715,-0.22 -0.385,-0.275 -0.77,-0.275 -1.1,0 -3.465,0.715 -2.365,0.715 -4.29,2.145 -1.925,1.43 -1.925,3.465 0,1.32 1.485,1.98 1.54,0.605 5.665,1.54 0.495,0.165 0.99,0.275 0.495,0.055 0.88,0.165 4.235,0.99 6.49,2.255 2.255,1.265 2.255,3.795 0,2.42 -1.98,4.675 -1.925,2.2 -5.115,3.52 -3.19,1.375 -6.655,1.375 z"
       id="text18"
       aria-label="Drowsiness" />
    <path
       id="Pfad_1359"
       data-name="Pfad 1359"
       d="m 614.411,242.842 c 0,0 83.4,80.287 133.409,163.2 50.009,82.913 104.106,124.085 166.98,102.857 62.874,-21.228 72.2,-103 171.334,-79.068 99.134,23.932 225.888,-186.99 225.888,-186.99 z"
       fill="#a6b7da"
       style="opacity:0.710526" />
    <path
       id="Pfad_1360"
       data-name="Pfad 1360"
       d="m 614.411,242.843 h 697.611 c 0,0 -98.821,57.35475 -186.422,81.2354 -87.601,23.88066 -263.1,23.37952 -339.721,0 C 709.258,300.69889 614.411,242.843 614.411,242.843 Z"
       fill="rgba(255,255,0,0.8)"
       opacity="0.8"
       style="opacity:0.84;fill:#ff794b;fill-opacity:0.8;stroke-width:1.26332" />
    <path
       id="Pfad_1360-5"
       data-name="Pfad 1360"
       d="m 614.411,242.843 h 697.611 c 0,0 -98.821,30.03825 -186.422,42.54521 -87.601,12.50695 -263.1,12.24449 -339.721,0 C 709.258,273.14371 614.411,242.843 614.411,242.843 Z"
       fill="rgba(255,255,0,0.8)"
       opacity="0.8"
       style="opacity:0.84;fill:#0022ff;fill-opacity:0.521569;stroke-width:0.914252" />
    <path
       id="Pfad_1360-7"
       data-name="Pfad 1360"
       d="m 614.411,242.843 h 697.611 c 0,0 -46.5606,7.2752 -134.1616,14.56166 -87.601,7.28645 -181.30123,5.99745 -260.19442,5.68047 C 840.71424,262.77595 614.411,242.843 614.411,242.843 Z"
       fill="rgba(255,255,0,0.8)"
       opacity="0.8"
       style="opacity:0.84;fill:#000000;fill-opacity:0.8;stroke-width:0.697829"
       sodipodi:nodetypes="ccssc" />
    <path
       style="font-size:66px;font-family:'Ink Free';-inkscape-font-specification:'Ink Free';letter-spacing:0.035em;fill:#ffffff"
       d="m 1369.095,376.58765 q -1.188,0.396 -2.904,0.528 -1.65,0.066 -2.178,0.066 -0.066,2.046 -0.264,4.554 -0.198,2.508 -0.33,4.158 l -0.198,2.046 -0.132,2.112 -0.396,5.082 q -0.264,3.366 -2.178,3.366 -0.726,0 -1.452,-1.716 -0.66,-1.65 -0.66,-2.706 0,-0.264 0.528,-1.056 0.528,-0.792 0.66,-1.98 0.264,-1.848 0.594,-6.138 0.33,-4.29 0.462,-7.194 -2.574,0.198 -5.544,0.594 -1.32,0.132 -5.94,0.594 -4.62,0.462 -7.26,0.594 -0.264,4.356 -0.594,10.626 -0.33,6.27 -0.33,7.656 0,0.528 0.132,1.386 0.198,0.858 0.198,1.32 0,0.594 -0.924,1.188 -0.858,0.594 -1.386,0.594 -0.66,0 -1.122,-0.858 -0.396,-0.858 -0.396,-1.98 0,-0.594 0.132,-1.98 0.132,-1.32 0.198,-2.31 0.264,-1.782 0.33,-2.904 0.33,-3.894 0.528,-7.524 0.198,-3.63 0.264,-4.884 -4.158,0.726 -7.854,0.726 -1.254,0 -2.112,-0.594 -0.924,-0.66 -0.924,-1.848 0,-0.858 0.462,-1.254 0.396,-0.462 1.716,-0.462 l 3.498,0.066 q 3.432,0.132 5.544,0.132 0.33,-5.61 0.33,-8.976 0,-7.656 -0.132,-13.728 v -2.442 q 0,-0.99 0.726,-1.584 0.792,-0.66 1.782,-0.66 0.726,0 0.99,1.122 0.264,1.122 0.264,2.508 0,1.452 -0.33,5.94 -0.396,7.656 -0.396,8.118 l -0.33,9.438 q 5.544,-0.132 18.81,-1.716 0.264,-1.914 0.924,-10.032 0.264,-4.29 0.462,-6.27 l 0.396,-5.148 q 0.858,-9.702 0.858,-12.144 0,-0.858 0.66,-1.386 0.66,-0.528 1.518,-0.528 1.188,0 1.188,2.31 0,1.452 -0.66,7.722 -0.726,8.184 -0.792,9.108 -0.396,5.082 -0.792,9.702 -0.33,4.62 -0.462,6.204 1.188,-0.198 2.112,-0.594 1.188,-0.396 1.848,-0.396 0.66,0 1.518,0.792 0.858,0.792 0.858,1.122 0,1.056 -1.518,1.518 z m 36.366,0.594 q 0,1.188 -1.782,5.214 -1.716,4.026 -5.28,7.458 -3.498,3.432 -8.646,3.432 -4.224,0 -7.062,-2.64 -2.838,-2.64 -2.838,-8.118 0,-5.148 2.376,-10.164 2.376,-5.082 6.204,-8.25 3.828,-3.234 7.92,-3.234 2.442,0 4.092,1.122 1.716,1.056 1.716,3.102 0,2.31 -2.64,4.488 -2.574,2.178 -6.732,3.828 -4.158,1.65 -8.58,2.376 -0.792,3.036 -0.792,5.94 0,3.828 1.782,5.94 1.848,2.112 5.214,2.112 5.082,0 8.25,-3.63 3.168,-3.63 5.28,-8.184 0.132,-0.264 0.462,-0.99 0.33,-0.792 0.594,-0.792 0.462,0 0.462,0.99 z m -9.9,-13.596 q -2.508,0 -4.818,1.65 -2.31,1.65 -3.894,3.96 -1.518,2.31 -1.98,4.092 3.036,-0.33 6.402,-1.716 3.366,-1.386 5.61,-3.036 2.31,-1.65 2.31,-2.706 0,-1.056 -1.122,-1.65 -1.056,-0.594 -2.508,-0.594 z m 45.738,26.994 q 0,0.792 -0.66,1.848 -0.66,0.99 -1.32,0.99 -1.122,0 -1.716,-1.386 -0.594,-1.386 -0.594,-3.234 0,-1.584 0.198,-9.504 l 0.066,-2.508 q 0,-1.518 -0.792,-2.178 -2.97,5.016 -5.544,8.712 -2.574,3.696 -6.534,6.996 -3.96,3.234 -8.316,3.234 -2.112,0 -3.3,-1.32 -1.122,-1.32 -1.122,-3.432 0,-2.64 2.376,-7.194 2.376,-4.62 6.072,-9.306 3.696,-4.752 7.392,-7.788 2.442,-1.98 3.894,-2.64 1.452,-0.726 2.574,-0.726 1.056,0 2.178,0.66 1.122,0.66 1.914,1.848 0.792,1.188 0.792,2.706 0,2.046 -1.122,3.894 l 1.122,-0.33 q 0.726,0 0.858,1.782 0.066,1.056 0.132,4.29 0.132,3.234 0.198,5.346 0.066,2.178 0.132,4.224 0.066,2.046 0.132,3.234 0.066,0.462 0.528,0.99 0.462,0.462 0.462,0.792 z m -5.742,-18.546 q 0.792,-1.98 0.792,-4.29 0,-1.386 -0.858,-2.376 -0.792,-1.056 -2.178,-1.056 -1.65,0 -4.224,2.244 -2.97,2.508 -6.27,6.732 -3.3,4.158 -5.478,8.25 -2.178,4.092 -2.178,6.468 0,1.98 1.848,1.98 3.564,0 6.864,-2.64 3.3,-2.64 5.874,-6.27 2.64,-3.696 5.808,-9.042 z m 38.2799,-24.156 q 0,1.32 -0.132,5.214 -0.132,3.828 -0.132,7.722 0,7.524 0.33,15.378 0.33,7.788 0.528,10.23 0,0.396 0.066,0.858 0.066,0.462 0.132,0.858 0.264,1.848 0.264,2.244 0,0.66 -0.99,1.254 -0.924,0.594 -1.452,0.594 -0.726,0 -0.99,-0.528 -0.198,-0.594 -0.198,-1.584 0,-3.63 0.198,-7.59 l 0.066,-3.696 q 0,-1.848 -0.066,-4.818 -0.066,-3.036 -0.198,-5.082 -3.366,10.824 -7.656,17.952 -4.224,7.062 -9.174,7.062 -2.244,0 -3.828,-2.112 -1.518,-2.112 -1.518,-6.072 0,-5.214 3.498,-11.352 3.564,-6.138 8.052,-10.56 4.554,-4.422 6.732,-4.422 2.112,0 2.112,1.386 0,0.924 -0.66,2.178 -0.594,1.188 -1.386,2.178 -0.726,0.99 -0.858,0.99 -0.132,0 -0.33,-0.066 -0.132,-0.132 -0.132,-0.264 0,-0.33 0.33,-1.122 0.33,-0.792 0.33,-1.056 0,-0.33 -0.066,-0.462 -0.066,-0.132 -0.396,-0.132 -1.386,0 -5.016,3.828 -3.564,3.762 -6.402,8.976 -2.838,5.214 -2.838,9.702 0,1.584 0.66,2.97 0.66,1.386 2.178,1.386 4.818,0 8.91,-8.118 4.158,-8.184 7.194,-18.546 l -0.132,-5.544 q -0.198,-7.326 -0.198,-7.788 0,-3.96 0.33,-5.676 0.132,-0.66 0.264,-0.924 0.198,-0.264 0.726,-0.264 0.66,0 1.32,0.462 0.66,0.396 0.66,1.122 z m 38.3461,42.702 q 0,0.792 -0.66,1.848 -0.66,0.99 -1.32,0.99 -1.122,0 -1.716,-1.386 -0.594,-1.386 -0.594,-3.234 0,-1.584 0.198,-9.504 l 0.066,-2.508 q 0,-1.518 -0.792,-2.178 -2.97,5.016 -5.544,8.712 -2.574,3.696 -6.534,6.996 -3.96,3.234 -8.316,3.234 -2.112,0 -3.3,-1.32 -1.122,-1.32 -1.122,-3.432 0,-2.64 2.376,-7.194 2.376,-4.62 6.072,-9.306 3.696,-4.752 7.392,-7.788 2.442,-1.98 3.894,-2.64 1.452,-0.726 2.574,-0.726 1.056,0 2.178,0.66 1.122,0.66 1.914,1.848 0.792,1.188 0.792,2.706 0,2.046 -1.122,3.894 l 1.122,-0.33 q 0.726,0 0.858,1.782 0.066,1.056 0.132,4.29 0.132,3.234 0.198,5.346 0.066,2.178 0.132,4.224 0.066,2.046 0.132,3.234 0.066,0.462 0.528,0.99 0.462,0.462 0.462,0.792 z m -5.742,-18.546 q 0.792,-1.98 0.792,-4.29 0,-1.386 -0.858,-2.376 -0.792,-1.056 -2.178,-1.056 -1.65,0 -4.224,2.244 -2.97,2.508 -6.27,6.732 -3.3,4.158 -5.478,8.25 -2.178,4.092 -2.178,6.468 0,1.98 1.848,1.98 3.564,0 6.864,-2.64 3.3,-2.64 5.874,-6.27 2.64,-3.696 5.808,-9.042 z m 30.5579,12.606 q -3.432,4.158 -6.204,6.402 -2.706,2.244 -5.676,2.244 -2.508,0 -4.158,-2.178 -1.584,-2.178 -1.584,-5.016 0,-4.224 2.244,-10.692 2.244,-6.468 5.676,-11.22 3.432,-4.752 6.864,-4.752 1.452,0 2.508,1.056 0.594,0.594 1.122,1.584 0.528,0.99 0.528,1.782 0,1.122 -0.33,2.64 -0.264,1.452 -0.594,1.452 -0.66,0 -0.858,-0.726 -0.198,-0.726 -0.264,-1.848 -0.198,-1.716 -0.396,-2.244 -0.198,-0.594 -0.594,-0.594 -3.102,0 -6.006,4.356 -2.904,4.29 -4.752,10.032 -1.848,5.676 -1.848,8.778 0,4.356 2.904,4.356 2.112,0 3.828,-1.056 1.782,-1.056 3.696,-2.97 3.564,-3.63 5.544,-6.27 0.132,-0.198 0.726,-0.99 0.66,-0.858 0.924,-0.858 0.792,0 0.792,0.594 0,0.396 -1.386,2.442 -1.32,2.046 -2.706,3.696 z m 37.7521,11.22 q -0.66,0 -1.122,-0.33 -0.462,-0.264 -0.462,-0.792 l 0.132,-4.554 q 0.33,-8.118 0.33,-13.266 0,-7.524 -1.056,-10.494 -1.056,-3.036 -2.442,-3.036 -3.102,0 -7.788,9.636 -4.686,9.57 -9.042,20.922 -0.33,0.924 -0.924,1.782 -0.528,0.858 -1.122,0.858 -1.452,0 -1.452,-0.924 0,-4.026 -0.33,-15.048 -0.33,-11.088 -0.528,-14.586 -0.594,-11.814 -1.122,-14.586 -0.528,-2.772 -0.528,-2.97 0,-0.66 0.726,-0.99 0.726,-0.33 1.848,-0.33 0.924,0 1.32,4.224 0.462,4.158 0.66,10.692 l 0.066,1.848 q 0.132,2.046 0.198,11.748 0.066,9.636 0.066,14.19 3.036,-7.59 5.676,-13.53 2.706,-5.94 6.204,-11.088 3.498,-5.214 6.468,-5.214 2.508,0 4.224,4.224 1.716,4.158 1.716,12.474 0,3.696 0.132,10.296 l 0.066,6.93 q 0,0.792 -0.528,1.32 -0.528,0.594 -1.386,0.594 z m 37.752,-18.678 q 0,1.188 -1.782,5.214 -1.716,4.026 -5.28,7.458 -3.498,3.432 -8.646,3.432 -4.224,0 -7.062,-2.64 -2.838,-2.64 -2.838,-8.118 0,-5.148 2.376,-10.164 2.376,-5.082 6.204,-8.25 3.828,-3.234 7.92,-3.234 2.442,0 4.092,1.122 1.716,1.056 1.716,3.102 0,2.31 -2.64,4.488 -2.574,2.178 -6.732,3.828 -4.158,1.65 -8.58,2.376 -0.792,3.036 -0.792,5.94 0,3.828 1.782,5.94 1.848,2.112 5.214,2.112 5.082,0 8.25,-3.63 3.168,-3.63 5.28,-8.184 0.132,-0.264 0.462,-0.99 0.33,-0.792 0.594,-0.792 0.462,0 0.462,0.99 z m -9.9,-13.596 q -2.508,0 -4.818,1.65 -2.31,1.65 -3.894,3.96 -1.518,2.31 -1.98,4.092 3.036,-0.33 6.402,-1.716 3.366,-1.386 5.61,-3.036 2.31,-1.65 2.31,-2.706 0,-1.056 -1.122,-1.65 -1.056,-0.594 -2.508,-0.594 z"
       id="Headache_"
       aria-label="Headache" />
    <path
       style="font-size:66px;font-family:'Ink Free';-inkscape-font-specification:'Ink Free';letter-spacing:0.035em;fill:#ffffff;fill-opacity:1"
       d="m 1221.514,183.428 q -0.462,0 -6.204,-7.062 -5.676,-7.128 -9.372,-12.144 -0.528,-0.726 -3.366,-4.818 -4.158,-6.072 -5.148,-7.326 l -0.132,5.082 -0.066,4.95 q 0,4.686 -0.132,10.164 -0.066,5.478 -0.198,8.712 -0.066,0.792 -0.726,1.452 -0.594,0.66 -1.254,0.66 -0.726,0 -1.056,-0.396 -0.264,-0.462 -0.264,-1.716 0,-0.792 0.264,-4.884 0.594,-7.59 0.594,-12.738 0,-4.092 0.132,-7.722 0.132,-3.696 0.132,-4.554 l 0.066,-1.914 v -0.198 q 0,-0.726 0.198,-1.122 0.264,-0.462 0.99,-0.462 h 0.33 q 0.726,0 2.838,2.64 2.178,2.574 5.478,7.062 0.726,0.924 1.386,1.848 0.66,0.858 1.254,1.65 3.762,4.818 3.96,5.082 9.372,11.946 10.23,13.596 -0.132,-0.528 -0.462,-2.442 -0.33,-1.914 -0.66,-5.016 -0.264,-3.102 -0.264,-6.402 0,-5.874 -1.122,-15.51 -0.33,-3.168 -0.33,-3.894 0,-2.508 2.838,-2.508 0.66,0 0.99,1.386 0.33,1.32 0.462,5.676 0.132,4.356 0.132,13.926 0,3.036 0.198,5.94 0.264,2.904 0.462,5.148 0.33,3.102 0.33,4.686 l 0.066,2.376 q 0,0.792 -2.574,0.792 z m 43.56,-2.772 q 0,0.792 -0.66,1.848 -0.66,0.99 -1.32,0.99 -1.122,0 -1.716,-1.386 -0.594,-1.386 -0.594,-3.234 0,-1.584 0.198,-9.504 l 0.066,-2.508 q 0,-1.518 -0.792,-2.178 -2.97,5.016 -5.544,8.712 -2.574,3.696 -6.534,6.996 -3.96,3.234 -8.316,3.234 -2.112,0 -3.3,-1.32 -1.122,-1.32 -1.122,-3.432 0,-2.64 2.376,-7.194 2.376,-4.62 6.072,-9.306 3.696,-4.752 7.392,-7.788 2.442,-1.98 3.894,-2.64 1.452,-0.726 2.574,-0.726 1.056,0 2.178,0.66 1.122,0.66 1.914,1.848 0.792,1.188 0.792,2.706 0,2.046 -1.122,3.894 l 1.122,-0.33 q 0.726,0 0.858,1.782 0.066,1.056 0.132,4.29 0.132,3.234 0.198,5.346 0.066,2.178 0.132,4.224 0.066,2.046 0.132,3.234 0.066,0.462 0.528,0.99 0.462,0.462 0.462,0.792 z m -5.742,-18.546 q 0.792,-1.98 0.792,-4.29 0,-1.386 -0.858,-2.376 -0.792,-1.056 -2.178,-1.056 -1.65,0 -4.224,2.244 -2.97,2.508 -6.27,6.732 -3.3,4.158 -5.478,8.25 -2.178,4.092 -2.178,6.468 0,1.98 1.848,1.98 3.564,0 6.864,-2.64 3.3,-2.64 5.874,-6.27 2.64,-3.696 5.808,-9.042 z m 39.93,22.11 q -1.32,0 -2.442,-2.772 -1.056,-2.772 -1.32,-5.742 -0.264,-2.838 -0.396,-11.484 -0.066,-1.386 -0.066,-2.772 0,-1.452 -0.066,-2.442 -1.914,4.554 -5.214,10.362 -3.3,5.808 -6.666,9.966 -3.3,4.158 -5.412,4.158 -2.178,0 -2.904,-2.31 -0.66,-2.31 -0.66,-7.326 0,-4.686 1.188,-10.626 1.254,-5.94 2.838,-9.042 0.66,-1.386 1.122,-1.848 0.462,-0.528 1.056,-0.528 1.65,0 1.65,0.66 0,0.33 -0.66,1.518 -1.782,3.3 -3.102,7.92 -1.32,4.62 -1.32,12.408 0,5.214 1.452,5.214 1.716,0 4.62,-3.762 2.97,-3.828 5.874,-9.108 2.904,-5.28 4.422,-9.174 0.528,-1.32 1.188,-4.092 0.198,-1.122 0.396,-1.584 0.198,-0.528 0.462,-0.528 0.726,0 1.584,0.594 0.858,0.594 0.858,1.254 0,3.168 0.198,10.89 0.264,7.656 0.594,10.626 0.264,2.574 0.924,4.026 0.726,1.452 1.386,2.31 0.66,0.792 0.66,0.99 0,1.056 -0.594,1.65 -0.594,0.594 -1.65,0.594 z m 17.226,1.122 q -2.838,0 -3.828,-0.528 -0.99,-0.528 -0.99,-1.452 0,-0.594 1.518,-2.046 1.518,-1.518 2.046,-1.518 0.792,0 0.792,0.33 0,0.264 -0.33,0.528 -0.33,0.264 -0.33,0.462 0,0.264 0.792,0.528 0.858,0.264 2.046,0.264 2.772,0 5.544,-0.99 2.838,-1.056 4.62,-2.706 1.782,-1.65 1.782,-3.498 0,-1.782 -1.122,-2.838 -1.122,-1.056 -2.838,-1.518 -1.65,-0.528 -5.61,-1.452 -4.356,-0.99 -6.798,-1.716 -2.376,-0.792 -3.828,-1.914 -1.452,-1.188 -1.452,-2.97 0,-3.168 3.102,-5.808 3.102,-2.64 7.128,-4.158 4.026,-1.518 6.204,-1.518 2.244,0 2.244,1.32 0,0.792 -0.528,1.782 -0.528,0.924 -1.584,0.924 -0.396,0 -0.858,-0.264 -0.462,-0.33 -0.924,-0.33 -1.32,0 -4.158,0.858 -2.838,0.858 -5.148,2.574 -2.31,1.716 -2.31,4.158 0,1.584 1.782,2.376 1.848,0.726 6.798,1.848 0.594,0.198 1.188,0.33 0.594,0.066 1.056,0.198 5.082,1.188 7.788,2.706 2.706,1.518 2.706,4.554 0,2.904 -2.376,5.61 -2.31,2.64 -6.138,4.224 -3.828,1.65 -7.986,1.65 z m 49.83,-18.084 q 0,1.188 -1.782,5.214 -1.716,4.026 -5.28,7.458 -3.498,3.432 -8.646,3.432 -4.224,0 -7.062,-2.64 -2.838,-2.64 -2.838,-8.118 0,-5.148 2.376,-10.164 2.376,-5.082 6.204,-8.25 3.828,-3.234 7.92,-3.234 2.442,0 4.092,1.122 1.716,1.056 1.716,3.102 0,2.31 -2.64,4.488 -2.574,2.178 -6.732,3.828 -4.158,1.65 -8.58,2.376 -0.792,3.036 -0.792,5.94 0,3.828 1.782,5.94 1.848,2.112 5.214,2.112 5.082,0 8.25,-3.63 3.168,-3.63 5.28,-8.184 0.132,-0.264 0.462,-0.99 0.33,-0.792 0.594,-0.792 0.462,0 0.462,0.99 z m -9.9,-13.596 q -2.508,0 -4.818,1.65 -2.31,1.65 -3.894,3.96 -1.518,2.31 -1.98,4.092 3.036,-0.33 6.402,-1.716 3.366,-1.386 5.61,-3.036 2.31,-1.65 2.31,-2.706 0,-1.056 -1.122,-1.65 -1.056,-0.594 -2.508,-0.594 z m 45.7381,26.994 q 0,0.792 -0.66,1.848 -0.66,0.99 -1.32,0.99 -1.122,0 -1.716,-1.386 -0.594,-1.386 -0.594,-3.234 0,-1.584 0.198,-9.504 l 0.066,-2.508 q 0,-1.518 -0.792,-2.178 -2.97,5.016 -5.544,8.712 -2.574,3.696 -6.534,6.996 -3.96,3.234 -8.316,3.234 -2.112,0 -3.3,-1.32 -1.122,-1.32 -1.122,-3.432 0,-2.64 2.376,-7.194 2.376,-4.62 6.072,-9.306 3.696,-4.752 7.392,-7.788 2.442,-1.98 3.894,-2.64 1.452,-0.726 2.574,-0.726 1.056,0 2.178,0.66 1.122,0.66 1.914,1.848 0.792,1.188 0.792,2.706 0,2.046 -1.122,3.894 l 1.122,-0.33 q 0.726,0 0.858,1.782 0.066,1.056 0.132,4.29 0.132,3.234 0.198,5.346 0.066,2.178 0.132,4.224 0.066,2.046 0.132,3.234 0.066,0.462 0.528,0.99 0.462,0.462 0.462,0.792 z m -5.742,-18.546 q 0.792,-1.98 0.792,-4.29 0,-1.386 -0.858,-2.376 -0.792,-1.056 -2.178,-1.056 -1.65,0 -4.224,2.244 -2.97,2.508 -6.27,6.732 -3.3,4.158 -5.478,8.25 -2.178,4.092 -2.178,6.468 0,1.98 1.848,1.98 3.564,0 6.864,-2.64 3.3,-2.64 5.874,-6.27 2.64,-3.696 5.808,-9.042 z m 68.046,18.678 q -4.356,0 -8.712,-2.178 -5.478,5.61 -13.53,5.61 -5.082,0 -8.118,-2.64 -2.97,-2.64 -2.97,-7.194 0,-3.63 2.244,-6.27 2.31,-2.706 5.082,-4.224 2.838,-1.584 6.27,-3.036 0.198,-3.894 1.98,-7.986 1.782,-4.158 4.488,-6.864 2.772,-2.706 5.742,-2.706 1.914,0 3.036,1.056 1.122,1.056 1.122,2.97 0,3.762 -4.026,7.788 -3.96,4.026 -9.24,6.93 0.066,3.96 2.178,7.392 2.178,3.366 5.544,5.478 1.254,-1.386 2.31,-3.3 0.924,-1.782 1.716,-3.696 0.792,-1.98 0.99,-2.838 0.066,-0.396 0.198,-0.99 0.132,-0.66 0.264,-0.99 0.198,-0.33 0.462,-0.33 0.396,0 0.726,0.66 0.33,0.594 0.33,1.122 0,1.452 -0.99,4.422 -0.99,2.904 -2.178,5.016 -0.858,1.518 -1.452,2.376 3.564,1.452 6.732,1.452 3.564,0 5.346,-2.772 1.848,-2.838 2.772,-6.732 0.198,-0.66 0.33,-1.056 0.198,-0.462 0.396,-0.462 0.264,0 0.528,0.264 0.264,0.198 0.264,0.462 0,1.98 -0.858,5.082 -0.792,3.102 -3.036,5.676 -2.178,2.508 -5.94,2.508 z m -7.524,-35.046 q -2.178,0 -4.356,2.508 -2.112,2.442 -3.498,5.808 -1.386,3.3 -1.386,5.412 3.696,-2.112 7.26,-5.676 3.63,-3.63 3.63,-6.336 0,-0.726 -0.396,-1.188 -0.396,-0.528 -1.254,-0.528 z m -12.144,17.952 q -0.198,0.066 -2.706,1.122 -2.508,0.99 -4.752,3.63 -2.244,2.574 -2.244,5.808 0,3.036 1.848,4.818 1.914,1.782 5.808,1.782 3.3,0 5.742,-0.99 2.508,-1.056 4.686,-2.772 -3.366,-2.376 -5.676,-5.874 -2.31,-3.498 -2.706,-7.524 z m 82.566,-17.226 q -0.858,1.782 -1.782,4.752 -0.858,2.97 -2.508,8.91 l -1.848,6.798 q -3.366,12.21 -4.158,17.226 -0.198,1.122 -1.056,1.848 -0.858,0.792 -2.574,0.792 -0.396,0 -2.838,-5.544 -2.376,-5.61 -6.27,-14.916 -2.376,-5.544 -4.818,-10.296 -2.442,-4.818 -3.3,-5.544 -1.122,-0.858 -1.122,-1.848 0,-0.462 0.858,-1.254 0.924,-0.792 1.848,-0.792 0.594,0 0.858,0.264 0.264,0.198 0.726,0.858 0.858,1.254 2.838,5.478 1.98,4.158 4.026,9.108 l 5.412,13.134 q 2.574,6.072 2.97,7.128 0.132,-1.254 1.188,-5.94 1.122,-4.686 2.64,-10.56 2.244,-8.514 3.63,-13.398 1.452,-4.95 2.706,-7.854 1.122,-2.574 1.914,-3.498 0.792,-0.924 1.782,-0.924 0.33,0 1.056,1.056 0.726,0.99 0.726,1.32 0,0.198 -1.056,1.122 -1.056,0.924 -1.848,2.574 z m 16.83,37.092 q -4.422,0 -6.534,-2.442 -2.112,-2.442 -2.112,-6.072 0,-3.168 1.122,-7.854 1.188,-4.686 3.3,-8.382 0.132,-0.264 1.056,-1.914 0.99,-1.716 2.178,-2.574 1.188,-0.924 2.508,-0.924 0.594,0 1.056,0.33 0.528,0.264 0.528,0.726 0,0.132 -0.396,0.66 -0.33,0.462 -0.528,0.726 -2.244,2.706 -3.63,5.346 -1.848,3.366 -2.904,6.666 -0.99,3.3 -0.99,7.194 0,5.214 6.336,5.214 2.97,0 5.478,-1.716 2.574,-1.716 4.092,-4.158 1.518,-2.508 1.518,-4.554 0,-2.31 -1.518,-4.026 -1.518,-1.716 -4.158,-3.63 -1.716,-1.254 -2.508,-2.046 -0.792,-0.792 -0.792,-1.32 0,-0.792 1.122,-1.254 1.122,-0.528 2.64,-0.528 0.858,0 1.122,0.132 0.264,0.066 0.264,0.33 0,0.132 -0.264,0.462 -0.198,0.264 -0.198,0.462 0,0.198 1.32,1.32 2.64,2.178 4.422,4.422 1.782,2.244 1.782,5.28 0,2.574 -1.914,5.94 -1.914,3.366 -5.412,5.808 -3.498,2.376 -7.986,2.376 z m 62.6999,0.792 q -1.188,0 -1.188,-1.188 0,-13.332 -0.858,-20.394 -0.858,-7.128 -2.97,-7.128 -3.564,0 -10.428,24.882 v 0.066 q 0,0.792 -0.528,1.386 -0.528,0.528 -1.386,0.528 -1.188,0 -1.188,-1.188 0,-2.64 0.264,-8.184 0.264,-6.204 0.264,-9.768 0,-4.95 -0.33,-6.996 -0.264,-2.112 -1.254,-2.112 -2.244,0 -5.676,8.25 -3.432,8.184 -7.194,19.338 l -0.594,1.716 q -0.264,0.66 -0.792,1.122 -0.462,0.462 -1.056,0.462 -0.792,0 -1.056,-0.132 -0.264,-0.132 -0.33,-0.792 -0.33,-3.234 -0.528,-8.646 -0.132,-1.386 -0.264,-4.554 -0.66,-11.154 -1.188,-15.048 -0.528,-3.96 -0.528,-4.422 0,-0.528 0.528,-1.254 0.528,-0.726 0.99,-0.726 1.056,0 1.716,1.518 0.33,0.726 0.726,5.808 0.396,5.082 0.66,12.606 l 0.33,10.098 q 3.63,-11.22 7.524,-20.328 3.894,-9.174 7.128,-9.174 2.178,0 2.97,3.168 0.792,3.168 0.792,9.174 0,3.168 -0.132,9.108 l -0.066,3.036 q 2.706,-9.438 5.346,-15.84 2.706,-6.402 5.412,-6.402 6.798,0 6.798,30.096 0,0.792 -0.528,1.32 -0.528,0.594 -1.386,0.594 z m 14.1901,-41.58 q -1.122,0 -2.31,-0.924 -1.122,-0.924 -1.122,-1.518 0,-0.726 0.66,-1.386 0.726,-0.66 1.452,-0.66 0.99,0.33 1.65,1.056 0.528,0.528 1.188,1.386 0.66,0.858 0.66,1.056 0,0.99 -2.178,0.99 z m 1.98,41.844 q -0.924,-0.066 -1.386,-2.97 -0.396,-2.904 -0.858,-11.022 -0.264,-5.346 -0.462,-10.428 -0.198,-5.148 -0.264,-7.92 0,-0.726 0.198,-1.056 0.264,-0.396 0.924,-0.396 1.518,0 1.914,1.254 0.396,1.254 0.396,4.818 l -0.066,7.788 q 0,6.666 0.396,10.692 0,0.198 0.594,4.224 0.462,2.772 0.462,3.696 0,0.66 -0.594,0.99 -0.528,0.396 -1.254,0.33 z m 37.356,-26.202 q -6.072,1.056 -6.798,1.188 l -4.29,0.726 q 0,3.432 0.066,7.194 0.132,3.762 0.33,6.6 0.264,3.828 0.924,5.874 0.66,2.046 0.726,2.31 0,0.66 -0.858,1.188 -0.792,0.594 -1.518,0.594 -0.396,0 -0.66,-0.264 -0.264,-0.198 -0.462,-0.726 -0.396,-0.924 -0.792,-3.432 -0.33,-2.508 -0.528,-5.544 -0.198,-2.706 -0.33,-6.27 -0.066,-3.63 -0.066,-6.996 -3.696,0.594 -7.59,1.452 -3.498,0.726 -4.158,0.726 -0.792,0 -1.518,-0.462 -0.66,-0.462 -0.66,-1.254 0,-0.858 0.594,-1.122 0.594,-0.264 1.98,-0.264 0.99,0 2.904,-0.33 1.914,-0.396 2.442,-0.528 4.422,-0.858 6.006,-1.122 0,-1.386 -0.132,-3.63 -0.132,-3.036 -0.132,-4.62 0,-2.574 0.132,-3.96 0.198,-1.452 0.66,-2.574 0.528,-1.32 1.98,-1.32 0.594,0 0.792,0.198 0.198,0.198 0.198,0.726 0,0.396 -0.33,2.31 -0.33,1.914 -0.33,5.082 0,2.442 0.132,5.478 l 0.066,1.782 q 2.97,-0.462 11.748,-2.442 0.528,-0.132 0.858,-0.924 0.396,-0.792 0.792,-0.792 0.726,0 1.452,0.858 0.792,0.792 0.792,1.65 0,1.122 -0.99,1.716 -0.924,0.594 -3.432,0.924 z m 12.276,-15.642 q -1.122,0 -2.31,-0.924 -1.122,-0.924 -1.122,-1.518 0,-0.726 0.66,-1.386 0.726,-0.66 1.452,-0.66 0.99,0.33 1.65,1.056 0.528,0.528 1.188,1.386 0.66,0.858 0.66,1.056 0,0.99 -2.178,0.99 z m 1.98,41.844 q -0.924,-0.066 -1.386,-2.97 -0.396,-2.904 -0.858,-11.022 -0.264,-5.346 -0.462,-10.428 -0.198,-5.148 -0.264,-7.92 0,-0.726 0.198,-1.056 0.264,-0.396 0.924,-0.396 1.518,0 1.914,1.254 0.396,1.254 0.396,4.818 l -0.066,7.788 q 0,6.666 0.396,10.692 0,0.198 0.594,4.224 0.462,2.772 0.462,3.696 0,0.66 -0.594,0.99 -0.528,0.396 -1.254,0.33 z m 32.934,0.858 q -0.66,0 -1.122,-0.33 -0.462,-0.264 -0.462,-0.792 0,-2.706 0.396,-8.382 0.396,-6.072 0.396,-10.098 0,-3.894 -0.264,-6.336 -0.198,-2.508 -1.056,-2.508 -2.244,0 -4.95,5.61 -2.64,5.544 -6.072,14.652 l -0.99,2.64 q -0.264,0.66 -0.924,1.056 -0.594,0.396 -1.254,0.396 -0.792,0 -1.056,-0.132 -0.264,-0.132 -0.33,-0.792 l -0.528,-5.412 -0.99,-9.504 q -0.462,-5.676 -1.122,-9.9 -0.198,-0.99 -0.198,-1.518 0,-0.99 0.858,-1.584 0.858,-0.66 1.98,-0.66 0.66,0 0.924,3.168 0.33,3.168 0.66,10.23 l 0.264,3.498 q 0.528,6.666 0.594,8.448 0.198,-0.396 0.33,-0.858 0.198,-0.528 0.462,-1.122 3.564,-9.24 6.666,-15.378 3.168,-6.204 6.072,-6.204 2.046,0 2.772,3.498 0.792,3.432 0.99,8.844 0.198,6.006 0.198,17.556 0,0.792 -0.66,1.32 -0.66,0.594 -1.584,0.594 z m 34.7819,13.2 q -2.838,2.706 -5.94,4.356 -3.036,1.716 -5.28,1.716 -1.254,0 -1.782,-0.66 -0.528,-0.594 -0.528,-1.452 0,-0.792 2.97,-1.848 4.488,-1.452 8.316,-4.884 2.97,-2.64 4.356,-6.006 1.386,-3.366 1.386,-6.864 0,-3.96 -0.528,-7.26 -0.462,-3.3 -1.518,-8.118 -1.188,-5.082 -1.65,-8.646 -1.122,3.036 -3.498,7.326 -2.31,4.29 -5.544,8.25 -3.036,3.762 -5.544,5.61 -2.442,1.848 -4.752,1.848 -1.98,0 -2.97,-1.518 -0.924,-1.584 -0.924,-4.29 0,-4.488 2.772,-10.56 2.772,-6.072 6.93,-10.428 4.158,-4.356 8.184,-4.356 1.386,0 2.112,0.99 0.792,0.99 0.792,2.376 0,1.782 -0.726,1.782 -0.198,0 -0.528,-0.462 -0.264,-0.528 -0.66,-0.924 -0.396,-0.396 -0.858,-0.396 -3.366,0 -6.864,3.762 -3.432,3.762 -5.742,8.844 -2.244,5.016 -2.244,8.25 0,1.782 0.462,2.574 0.528,0.792 1.584,0.792 1.584,0 3.828,-1.848 2.244,-1.848 5.346,-5.808 2.772,-3.498 5.016,-8.118 2.31,-4.686 3.498,-8.91 0.132,-0.396 0.396,-0.66 0.33,-0.264 0.726,-0.264 0.594,0 1.188,0.396 0.66,0.33 0.66,0.726 0,0.264 -0.132,0.594 -0.066,0.264 -0.132,0.33 0.462,3.63 2.178,11.286 1.254,5.412 1.848,9.108 0.66,3.63 0.66,7.128 0,5.148 -2.046,9.372 -2.046,4.224 -4.818,6.864 z"
       id="Nausea_Vomiting_"
       aria-label="Nausea &amp; Vomiting" />
    <path
       style="font-size:55px;font-family:'Ink Free';-inkscape-font-specification:'Ink Free';letter-spacing:0.035em;fill:#feffff"
       d="m 203.26198,399.09101 q -1.1,0 -2.035,-2.31 -0.88,-2.31 -1.1,-4.785 -0.22,-2.09 -0.44,-9.735 -0.11,-3.19 -0.165,-3.96 -3.795,9.24 -8.69,16.225 -4.84,6.985 -9.13,6.985 -2.145,0 -3.74,-2.585 -1.54,-2.585 -2.365,-6.93 -0.825,-4.4 -0.825,-9.625 0,-4.235 0.495,-9.57 0.495,-5.39 1.21,-7.755 0.22,-0.66 0.605,-1.045 0.44,-0.44 0.99,-0.44 1.375,0 1.375,1.045 0,0.165 -1.045,3.96 -1.045,3.795 -1.045,14.19 0,6.875 1.265,11.33 1.32,4.4 3.685,4.4 2.31,0 5.5,-3.74 3.19,-3.795 6.05,-9.02 2.915,-5.225 4.235,-9.185 0.88,-2.915 1.155,-8.745 0.165,-2.255 0.275,-2.365 0.44,-0.55 1.32,-0.55 0.99,0 0.99,2.695 0,3.245 0.165,12.32 0.22,9.075 0.495,11.495 0.22,2.035 0.77,3.19 0.605,1.155 1.265,1.925 0.66,0.77 0.66,0.99 0,0.66 -0.55,1.1 -0.55,0.495 -1.375,0.495 z m 24.69504,1.045 q -0.55,0 -0.935,-0.275 -0.385,-0.22 -0.385,-0.66 0,-2.255 0.33,-6.985 0.33,-5.06 0.33,-8.415 0,-3.245 -0.22,-5.28 -0.165,-2.09 -0.88,-2.09 -1.87,0 -4.125,4.675 -2.2,4.62 -5.06,12.21 l -0.825,2.2 q -0.22,0.55 -0.77,0.88 -0.495,0.33 -1.045,0.33 -0.66,0 -0.88,-0.11 -0.22,-0.11 -0.275,-0.66 l -0.44,-4.51 -0.825,-7.92 q -0.385,-4.73 -0.935,-8.25 -0.165,-0.825 -0.165,-1.265 0,-0.825 0.715,-1.32 0.715,-0.55 1.65,-0.55 0.55,0 0.77,2.64 0.275,2.64 0.55,8.525 l 0.22,2.915 q 0.44,5.555 0.495,7.04 0.165,-0.33 0.275,-0.715 0.165,-0.44 0.385,-0.935 2.97,-7.7 5.555,-12.815 2.64,-5.17 5.06,-5.17 1.705,0 2.31,2.915 0.66,2.86 0.825,7.37 0.165,5.005 0.165,14.63 0,0.66 -0.55,1.1 -0.55,0.495 -1.32,0.495 z m 31.29495,-1.045 q -1.1,0 -2.035,-2.31 -0.88,-2.31 -1.1,-4.785 -0.22,-2.365 -0.33,-9.57 -0.055,-1.155 -0.055,-2.31 0,-1.21 -0.055,-2.035 -1.595,3.795 -4.345,8.635 -2.75,4.84 -5.555,8.305 -2.75,3.465 -4.51,3.465 -1.815,0 -2.42,-1.925 -0.55,-1.925 -0.55,-6.105 0,-3.905 0.99,-8.855 1.045,-4.95 2.365,-7.535 0.55,-1.155 0.935,-1.54 0.385,-0.44 0.88,-0.44 1.375,0 1.375,0.55 0,0.275 -0.55,1.265 -1.485,2.75 -2.585,6.6 -1.1,3.85 -1.1,10.34 0,4.345 1.21,4.345 1.43,0 3.85,-3.135 2.475,-3.19 4.895,-7.59 2.42,-4.4 3.685,-7.645 0.44,-1.1 0.99,-3.41 0.165,-0.935 0.33,-1.32 0.165,-0.44 0.385,-0.44 0.605,0 1.32,0.495 0.715,0.495 0.715,1.045 0,2.64 0.165,9.075 0.22,6.38 0.495,8.855 0.22,2.145 0.77,3.355 0.605,1.21 1.155,1.925 0.55,0.66 0.55,0.825 0,0.88 -0.495,1.375 -0.495,0.495 -1.375,0.495 z m 14.35503,0.935 q -2.365,0 -3.19,-0.44 -0.825,-0.44 -0.825,-1.21 0,-0.495 1.265,-1.705 1.265,-1.265 1.705,-1.265 0.66,0 0.66,0.275 0,0.22 -0.275,0.44 -0.275,0.22 -0.275,0.385 0,0.22 0.66,0.44 0.715,0.22 1.705,0.22 2.31,0 4.62,-0.825 2.365,-0.88 3.85,-2.255 1.485,-1.375 1.485,-2.915 0,-1.485 -0.935,-2.365 -0.935,-0.88 -2.365,-1.265 -1.375,-0.44 -4.675,-1.21 -3.63,-0.825 -5.665,-1.43 -1.98,-0.66 -3.19,-1.595 -1.21,-0.99 -1.21,-2.475 0,-2.64 2.585,-4.84 2.585,-2.2 5.94,-3.465 3.355,-1.265 5.17,-1.265 1.87,0 1.87,1.1 0,0.66 -0.44,1.485 -0.44,0.77 -1.32,0.77 -0.33,0 -0.715,-0.22 -0.385,-0.275 -0.77,-0.275 -1.1,0 -3.465,0.715 -2.365,0.715 -4.29,2.145 -1.925,1.43 -1.925,3.465 0,1.32 1.485,1.98 1.54,0.605 5.665,1.54 0.495,0.165 0.99,0.275 0.495,0.055 0.88,0.165 4.235,0.99 6.49,2.255 2.255,1.265 2.255,3.795 0,2.42 -1.98,4.675 -1.925,2.2 -5.115,3.52 -3.19,1.375 -6.655,1.375 z m 41.41498,-0.935 q -1.1,0 -2.035,-2.31 -0.88,-2.31 -1.1,-4.785 -0.22,-2.365 -0.33,-9.57 -0.055,-1.155 -0.055,-2.31 0,-1.21 -0.055,-2.035 -1.595,3.795 -4.345,8.635 -2.75,4.84 -5.555,8.305 -2.75,3.465 -4.51,3.465 -1.815,0 -2.42,-1.925 -0.55,-1.925 -0.55,-6.105 0,-3.905 0.99,-8.855 1.045,-4.95 2.365,-7.535 0.55,-1.155 0.935,-1.54 0.385,-0.44 0.88,-0.44 1.375,0 1.375,0.55 0,0.275 -0.55,1.265 -1.485,2.75 -2.585,6.6 -1.1,3.85 -1.1,10.34 0,4.345 1.21,4.345 1.43,0 3.85,-3.135 2.475,-3.19 4.895,-7.59 2.42,-4.4 3.685,-7.645 0.44,-1.1 0.99,-3.41 0.165,-0.935 0.33,-1.32 0.165,-0.44 0.385,-0.44 0.605,0 1.32,0.495 0.715,0.495 0.715,1.045 0,2.64 0.165,9.075 0.22,6.38 0.495,8.855 0.22,2.145 0.77,3.355 0.605,1.21 1.155,1.925 0.55,0.66 0.55,0.825 0,0.88 -0.495,1.375 -0.495,0.495 -1.375,0.495 z m 31.90002,-2.97 q 0,0.66 -0.55,1.54 -0.55,0.825 -1.1,0.825 -0.935,0 -1.43,-1.155 -0.495,-1.155 -0.495,-2.695 0,-1.32 0.165,-7.92 l 0.055,-2.09 q 0,-1.265 -0.66,-1.815 -2.475,4.18 -4.62,7.26 -2.145,3.08 -5.445,5.83 -3.3,2.695 -6.93,2.695 -1.76,0 -2.75,-1.1 -0.935,-1.1 -0.935,-2.86 0,-2.2 1.98,-5.995 1.98,-3.85 5.06,-7.755 3.08,-3.96 6.16,-6.49 2.035,-1.65 3.245,-2.2 1.21,-0.605 2.145,-0.605 0.88,0 1.815,0.55 0.935,0.55 1.595,1.54 0.66,0.99 0.66,2.255 0,1.705 -0.935,3.245 l 0.935,-0.275 q 0.605,0 0.715,1.485 0.055,0.88 0.11,3.575 0.11,2.695 0.165,4.455 0.055,1.815 0.11,3.52 0.055,1.705 0.11,2.695 0.055,0.385 0.44,0.825 0.385,0.385 0.385,0.66 z m -4.785,-15.455 q 0.66,-1.65 0.66,-3.575 0,-1.155 -0.715,-1.98 -0.66,-0.88 -1.815,-0.88 -1.375,0 -3.52,1.87 -2.475,2.09 -5.225,5.61 -2.75,3.465 -4.565,6.875 -1.815,3.41 -1.815,5.39 0,1.65 1.54,1.65 2.97,0 5.72,-2.2 2.75,-2.2 4.895,-5.225 2.2,-3.08 4.84,-7.535 z m 15.23498,17.215 q -0.66,0 -1.265,-1.54 -0.55,-1.595 -0.55,-4.785 0.055,-6.215 0.165,-15.015 0.165,-8.8 0.275,-13.255 0.055,-1.595 0.55,-2.97 0.55,-1.375 1.87,-1.375 0.44,0 0.55,0.495 0.165,0.44 0.165,1.76 0,0.055 -0.055,0.385 0,0.275 0,1.045 -0.99,14.465 -0.99,28.215 0,1.76 0.77,3.74 0.825,1.98 0.825,2.09 0,0.55 -0.715,0.88 -0.715,0.33 -1.595,0.33 z m 53.35007,-17.16 q -1.54,0.165 -7.315,1.43 -5.72,1.21 -8.415,1.925 0,1.21 0,5.115 0.055,3.85 0.165,6.545 0.055,1.045 0.22,2.31 0.22,1.265 0.275,1.815 0.33,1.98 0.33,2.365 0,0.605 -0.605,1.76 -0.55,1.21 -0.935,1.21 -0.385,0 -0.715,-0.385 -0.33,-0.385 -0.44,-0.935 -0.55,-2.475 -0.77,-8.03 -0.275,-6.765 -0.275,-10.56 -0.33,0.055 -1.1,0.22 -0.715,0.11 -1.265,0.165 -0.55,0 -1.155,-0.275 -0.605,-0.275 -0.605,-0.66 0,-0.44 0.275,-0.66 0.33,-0.22 0.715,-0.33 0.385,-0.165 0.55,-0.22 1.98,-0.825 2.64,-1.045 l -0.44,-12.265 q -4.07,0.66 -5.995,0.66 -2.145,0 -2.97,-1.045 -0.77,-1.045 -0.77,-1.925 0,-0.495 0.715,-0.495 0.11,0 1.265,0.385 1.21,0.385 2.09,0.385 1.76,0 5.61,-0.55 0,-0.11 0.055,-0.825 0.055,-0.77 0.495,-1.375 0.275,-0.495 0.495,-0.66 0.22,-0.165 0.495,-0.165 1.045,0 1.045,2.31 0.77,-0.165 3.465,-0.66 2.75,-0.495 6.27,-0.935 3.52,-0.44 6.105,-0.44 2.09,0 2.09,0.825 0,0.66 -0.495,1.705 -0.44,1.045 -1.045,1.045 -0.22,0 -0.44,-0.22 -0.22,-0.275 -0.33,-0.33 -0.495,-0.22 -1.43,-0.22 -1.705,0 -6.82,0.715 -5.06,0.715 -7.315,1.21 l 0.385,11.935 q 2.97,-0.77 9.13,-2.09 6.16,-1.32 7.205,-1.32 0.44,0 0.605,0.165 0.165,0.11 0.165,0.55 0,1.705 -1.21,1.87 z m 32.28498,15.4 q 0,0.66 -0.55,1.54 -0.55,0.825 -1.1,0.825 -0.935,0 -1.43,-1.155 -0.495,-1.155 -0.495,-2.695 0,-1.32 0.165,-7.92 l 0.055,-2.09 q 0,-1.265 -0.66,-1.815 -2.475,4.18 -4.62,7.26 -2.145,3.08 -5.445,5.83 -3.3,2.695 -6.93,2.695 -1.76,0 -2.75,-1.1 -0.935,-1.1 -0.935,-2.86 0,-2.2 1.98,-5.995 1.98,-3.85 5.06,-7.755 3.08,-3.96 6.16,-6.49 2.035,-1.65 3.245,-2.2 1.21,-0.605 2.145,-0.605 0.88,0 1.815,0.55 0.935,0.55 1.595,1.54 0.66,0.99 0.66,2.255 0,1.705 -0.935,3.245 l 0.935,-0.275 q 0.605,0 0.715,1.485 0.055,0.88 0.11,3.575 0.11,2.695 0.165,4.455 0.055,1.815 0.11,3.52 0.055,1.705 0.11,2.695 0.055,0.385 0.44,0.825 0.385,0.385 0.385,0.66 z m -4.785,-15.455 q 0.66,-1.65 0.66,-3.575 0,-1.155 -0.715,-1.98 -0.66,-0.88 -1.815,-0.88 -1.375,0 -3.52,1.87 -2.475,2.09 -5.225,5.61 -2.75,3.465 -4.565,6.875 -1.815,3.41 -1.815,5.39 0,1.65 1.54,1.65 2.97,0 5.72,-2.2 2.75,-2.2 4.895,-5.225 2.2,-3.08 4.84,-7.535 z m 32.88995,-3.08 q -5.06,0.88 -5.665,0.99 l -3.575,0.605 q 0,2.86 0.055,5.995 0.11,3.135 0.275,5.5 0.22,3.19 0.77,4.895 0.55,1.705 0.605,1.925 0,0.55 -0.715,0.99 -0.66,0.495 -1.265,0.495 -0.33,0 -0.55,-0.22 -0.22,-0.165 -0.385,-0.605 -0.33,-0.77 -0.66,-2.86 -0.275,-2.09 -0.44,-4.62 -0.165,-2.255 -0.275,-5.225 -0.055,-3.025 -0.055,-5.83 -3.08,0.495 -6.325,1.21 -2.915,0.605 -3.465,0.605 -0.66,0 -1.265,-0.385 -0.55,-0.385 -0.55,-1.045 0,-0.715 0.495,-0.935 0.495,-0.22 1.65,-0.22 0.825,0 2.42,-0.275 1.595,-0.33 2.035,-0.44 3.685,-0.715 5.005,-0.935 0,-1.155 -0.11,-3.025 -0.11,-2.53 -0.11,-3.85 0,-2.145 0.11,-3.3 0.165,-1.21 0.55,-2.145 0.44,-1.1 1.65,-1.1 0.495,0 0.66,0.165 0.165,0.165 0.165,0.605 0,0.33 -0.275,1.925 -0.275,1.595 -0.275,4.235 0,2.035 0.11,4.565 l 0.055,1.485 q 2.475,-0.385 9.79,-2.035 0.44,-0.11 0.715,-0.77 0.33,-0.66 0.66,-0.66 0.605,0 1.21,0.715 0.66,0.66 0.66,1.375 0,0.935 -0.825,1.43 -0.77,0.495 -2.86,0.77 z m 10.22997,-13.035 q -0.935,0 -1.925,-0.77 -0.935,-0.77 -0.935,-1.265 0,-0.605 0.55,-1.155 0.605,-0.55 1.21,-0.55 0.825,0.275 1.375,0.88 0.44,0.44 0.99,1.155 0.55,0.715 0.55,0.88 0,0.825 -1.815,0.825 z m 1.65,34.87 q -0.77,-0.055 -1.155,-2.475 -0.33,-2.42 -0.715,-9.185 -0.22,-4.455 -0.385,-8.69 -0.165,-4.29 -0.22,-6.6 0,-0.605 0.165,-0.88 0.22,-0.33 0.77,-0.33 1.265,0 1.595,1.045 0.33,1.045 0.33,4.015 l -0.055,6.49 q 0,5.555 0.33,8.91 0,0.165 0.495,3.52 0.385,2.31 0.385,3.08 0,0.55 -0.495,0.825 -0.44,0.33 -1.045,0.275 z m 29.20504,11.715 q -2.365,2.255 -4.95,3.63 -2.53,1.43 -4.4,1.43 -1.045,0 -1.485,-0.55 -0.44,-0.495 -0.44,-1.21 0,-0.66 2.475,-1.54 3.74,-1.21 6.93,-4.07 2.475,-2.2 3.63,-5.005 1.155,-2.805 1.155,-5.72 0,-3.3 -0.44,-6.05 -0.385,-2.75 -1.265,-6.765 -0.99,-4.235 -1.375,-7.205 -0.935,2.53 -2.915,6.105 -1.925,3.575 -4.62,6.875 -2.53,3.135 -4.62,4.675 -2.035,1.54 -3.96,1.54 -1.65,0 -2.475,-1.265 -0.77,-1.32 -0.77,-3.575 0,-3.74 2.31,-8.8 2.31,-5.06 5.775,-8.69 3.465,-3.63 6.82,-3.63 1.155,0 1.76,0.825 0.66,0.825 0.66,1.98 0,1.485 -0.605,1.485 -0.165,0 -0.44,-0.385 -0.22,-0.44 -0.55,-0.77 -0.33,-0.33 -0.715,-0.33 -2.805,0 -5.72,3.135 -2.86,3.135 -4.785,7.37 -1.87,4.18 -1.87,6.875 0,1.485 0.385,2.145 0.44,0.66 1.32,0.66 1.32,0 3.19,-1.54 1.87,-1.54 4.455,-4.84 2.31,-2.915 4.18,-6.765 1.925,-3.905 2.915,-7.425 0.11,-0.33 0.33,-0.55 0.275,-0.22 0.605,-0.22 0.495,0 0.99,0.33 0.55,0.275 0.55,0.605 0,0.22 -0.11,0.495 -0.055,0.22 -0.11,0.275 0.385,3.025 1.815,9.405 1.045,4.51 1.54,7.59 0.55,3.025 0.55,5.94 0,4.29 -1.705,7.81 -1.705,3.52 -4.015,5.72 z m 34.04499,-12.045 q -1.1,0 -2.035,-2.31 -0.88,-2.31 -1.1,-4.785 -0.22,-2.365 -0.33,-9.57 -0.055,-1.155 -0.055,-2.31 0,-1.21 -0.055,-2.035 -1.595,3.795 -4.345,8.635 -2.75,4.84 -5.555,8.305 -2.75,3.465 -4.51,3.465 -1.815,0 -2.42,-1.925 -0.55,-1.925 -0.55,-6.105 0,-3.905 0.99,-8.855 1.045,-4.95 2.365,-7.535 0.55,-1.155 0.935,-1.54 0.385,-0.44 0.88,-0.44 1.375,0 1.375,0.55 0,0.275 -0.55,1.265 -1.485,2.75 -2.585,6.6 -1.1,3.85 -1.1,10.34 0,4.345 1.21,4.345 1.43,0 3.85,-3.135 2.475,-3.19 4.895,-7.59 2.42,-4.4 3.685,-7.645 0.44,-1.1 0.99,-3.41 0.165,-0.935 0.33,-1.32 0.165,-0.44 0.385,-0.44 0.605,0 1.32,0.495 0.715,0.495 0.715,1.045 0,2.64 0.165,9.075 0.22,6.38 0.495,8.855 0.22,2.145 0.77,3.355 0.605,1.21 1.155,1.925 0.55,0.66 0.55,0.825 0,0.88 -0.495,1.375 -0.495,0.495 -1.375,0.495 z m 29.48002,-14.135 q 0,0.99 -1.485,4.345 -1.43,3.355 -4.4,6.215 -2.915,2.86 -7.205,2.86 -3.52,0 -5.885,-2.2 -2.365,-2.2 -2.365,-6.765 0,-4.29 1.98,-8.47 1.98,-4.235 5.17,-6.875 3.19,-2.695 6.6,-2.695 2.035,0 3.41,0.935 1.43,0.88 1.43,2.585 0,1.925 -2.2,3.74 -2.145,1.815 -5.61,3.19 -3.465,1.375 -7.15,1.98 -0.66,2.53 -0.66,4.95 0,3.19 1.485,4.95 1.54,1.76 4.345,1.76 4.235,0 6.875,-3.025 2.64,-3.025 4.4,-6.82 0.11,-0.22 0.385,-0.825 0.275,-0.66 0.495,-0.66 0.385,0 0.385,0.825 z m -8.25,-11.33 q -2.09,0 -4.015,1.375 -1.925,1.375 -3.245,3.3 -1.265,1.925 -1.65,3.41 2.53,-0.275 5.335,-1.43 2.805,-1.155 4.675,-2.53 1.925,-1.375 1.925,-2.255 0,-0.88 -0.935,-1.375 -0.88,-0.495 -2.09,-0.495 z m 28.93004,-11.66 q -0.88,3.245 -3.245,10.45 -3.245,10.34 -4.62,15.015 -2.31,7.92 -3.3,13.86 -0.275,1.76 -0.495,2.42 -0.165,0.55 -0.55,0.88 -0.385,0.33 -0.88,0.33 -0.275,0 -0.44,-0.055 -0.66,-0.165 -0.66,-2.09 0,-2.145 0.715,-5.61 0.715,-3.465 1.155,-4.895 1.155,-4.07 3.025,-9.735 0.33,-1.045 1.265,-3.96 0.99,-2.97 1.76,-5.775 0.33,-1.1 1.21,-4.62 l 1.595,-5.83 q 0.825,-2.915 1.705,-5.115 0.44,-0.825 1.21,-0.825 0.275,0 0.44,0.055 0.77,0.22 0.77,1.705 0,1.54 -0.66,3.795 z"
       id="Unusual_Fatigue_Drowsiness_"
       aria-label="Unusual Fatigue/" />
    <path
       id="Linie_1"
       style="fill:none"
       d="m 0.5,242.5 h 1920" />
    <circle
       style="opacity:1;fill:none;fill-opacity:1;stroke:#ffffff;stroke-width:1.697;stroke-linecap:round;stroke-linejoin:round;stroke-dasharray:none;stroke-dashoffset:0.9578;stroke-opacity:1;paint-order:stroke fill markers"
       id="path45"
       cx="890.6272"
       cy="167.32547"
       r="2.3641155" />
    <circle
       style="fill:none;fill-opacity:1;stroke:#ffffff;stroke-width:1.697;stroke-linecap:round;stroke-linejoin:round;stroke-dasharray:none;stroke-dashoffset:0.9578;stroke-opacity:1;paint-order:stroke fill markers"
       id="path45-0"
       cx="1156.5439"
       cy="250.83392"
       r="2.3641155" />
    <circle
       style="fill:none;fill-opacity:1;stroke:#ffffff;stroke-width:1.697;stroke-linecap:round;stroke-linejoin:round;stroke-dasharray:none;stroke-dashoffset:0.9578;stroke-opacity:1;paint-order:stroke fill markers"
       id="path45-7"
       cx="782.27118"
       cy="381.73987"
       r="2.3641155" />
    <path
       style="font-size:48px;line-height:1.24;font-family:'Ink Free';-inkscape-font-specification:'Ink Free';letter-spacing:0px;white-space:pre;fill:#ffffff;fill-opacity:0.9;stroke-width:0;stroke-linecap:round;stroke-linejoin:round;stroke-dashoffset:0.9578;paint-order:stroke fill markers"
       d="m 1382.6329,298.89466 q -2.928,2.592 -6.048,4.896 -3.072,2.304 -5.136,3.264 -0.144,0.528 -0.432,0.768 -0.288,0.288 -0.864,0.288 -0.432,0 -0.624,-0.192 -0.192,-0.144 -0.192,-0.576 0,-0.288 0.192,-2.4 0.24,-2.112 0.24,-4.944 0,-4.8 -0.144,-8.688 -0.096,-4.512 -0.096,-6.336 0,-2.832 0.576,-4.656 0.432,-1.152 1.536,-1.152 0.384,0 0.672,0.144 0.336,0.144 0.336,0.432 -0.048,0.24 -0.528,1.68 -0.432,1.44 -0.432,2.736 0,3.6 0.144,7.872 0.096,5.472 0.096,7.584 0,3.6 -0.048,4.32 1.728,-0.672 4.656,-2.784 2.976,-2.112 4.992,-3.84 4.176,-3.744 6.096,-6.72 1.92,-2.976 1.92,-6.192 0,-3.888 -4.896,-5.328 -4.848,-1.44 -12.72,-1.44 -2.4,0 -6.432,0.576 -0.768,0.048 -2.4,0.48 -0.72,0.24 -1.008,0.24 -0.384,0 -0.72,-0.624 -0.384,-0.624 -0.384,-1.248 0,-0.24 0.336,-0.432 0.336,-0.24 1.056,-0.336 2.88,-0.384 4.896,-0.576 2.064,-0.192 4.8,-0.192 8.736,0 14.208,1.968 5.52,1.968 5.52,6.672 0,3.744 -2.16,7.104 -2.16,3.36 -7.008,7.632 z m 31.296,-3.936 q 0,0.864 -1.296,3.792 -1.248,2.928 -3.84,5.424 -2.544,2.496 -6.288,2.496 -3.072,0 -5.136,-1.92 -2.064,-1.92 -2.064,-5.904 0,-3.744 1.728,-7.392 1.728,-3.696 4.512,-6 2.784,-2.352 5.76,-2.352 1.776,0 2.976,0.816 1.248,0.768 1.248,2.256 0,1.68 -1.92,3.264 -1.872,1.584 -4.896,2.784 -3.024,1.2 -6.24,1.728 -0.576,2.208 -0.576,4.32 0,2.784 1.296,4.32 1.344,1.536 3.792,1.536 3.696,0 6,-2.64 2.304,-2.64 3.84,-5.952 0.096,-0.192 0.336,-0.72 0.24,-0.576 0.432,-0.576 0.336,0 0.336,0.72 z m -7.2,-9.888 q -1.824,0 -3.504,1.2 -1.68,1.2 -2.832,2.88 -1.104,1.68 -1.44,2.976 2.208,-0.24 4.656,-1.248 2.448,-1.008 4.08,-2.208 1.68,-1.2 1.68,-1.968 0,-0.768 -0.816,-1.2 -0.768,-0.432 -1.824,-0.432 z m 16.32,17.568 q -0.096,3.264 -0.096,5.328 0,2.736 0.24,4.992 0.096,0.864 0.096,1.2 0,0.768 -0.336,1.296 -0.336,0.576 -0.96,0.576 -0.864,0 -0.96,-0.624 -0.048,-0.816 -0.144,-2.544 -0.048,-1.68 -0.048,-3.408 l 0.048,-6.72 q -0.24,0 -0.912,0.048 -0.624,0.048 -1.248,0.048 -1.152,0 -1.152,-1.584 0,-1.152 0.576,-1.152 0.192,0 1.152,0.288 0.96,0.288 1.632,0.288 l -0.048,-13.584 q -0.384,-0.048 -1.584,-0.144 -1.2,-0.144 -1.776,-0.48 -0.528,-0.336 -0.528,-0.96 0,-1.248 0.48,-1.248 0.528,0 1.296,0.384 0.096,0.048 0.576,0.288 0.48,0.192 1.344,0.288 0.288,-0.768 0.528,-1.056 0.288,-0.288 1.056,-0.288 0.96,0 0.96,0.384 0,0.144 -0.144,0.528 -0.144,0.336 -0.144,0.672 2.976,0.432 6.72,1.776 3.792,1.296 6.528,3.312 2.784,2.016 2.784,4.416 0,3.408 -4.416,5.28 -4.416,1.872 -11.52,2.4 z m -0.192,-15.36 q 0.096,2.784 0.144,7.392 0.048,4.56 0.048,6.048 2.88,0 6.144,-0.72 3.264,-0.768 5.472,-2.016 2.256,-1.296 2.256,-2.832 0,-2.016 -2.304,-3.648 -2.304,-1.632 -5.568,-2.688 -3.216,-1.056 -6.192,-1.536 z m 34.704,0.528 q -0.336,0 -0.672,-0.288 -0.288,-0.288 -0.672,-0.816 -0.336,-0.48 -0.912,-0.816 -0.528,-0.336 -1.104,-0.336 -1.392,0 -3.744,3.696 -2.352,3.648 -4.608,9.216 0.048,1.104 0.144,2.784 0.144,1.68 0.192,2.496 l 0.144,1.92 q 0,0.672 -0.288,1.152 -0.288,0.528 -1.056,0.528 -0.816,0 -1.056,-2.16 -0.24,-2.208 -0.288,-6.384 -0.048,-1.056 -0.096,-3.024 0,-1.968 -0.096,-4.704 -0.144,-4.128 -0.144,-5.904 0,-1.104 1.344,-1.104 0.816,0 0.96,0.72 0.192,0.672 0.192,2.64 v 7.632 q 1.44,-3.696 3.12,-6.384 1.68,-2.688 3.264,-4.08 1.632,-1.44 2.88,-1.44 1.056,0 2.016,0.48 0.96,0.48 1.536,1.248 0.576,0.72 0.576,1.392 0,0.432 -0.624,1.008 -0.576,0.528 -1.008,0.528 z m 23.52,7.152 q 0,0.864 -1.296,3.792 -1.248,2.928 -3.84,5.424 -2.544,2.496 -6.288,2.496 -3.072,0 -5.136,-1.92 -2.064,-1.92 -2.064,-5.904 0,-3.744 1.728,-7.392 1.728,-3.696 4.512,-6 2.784,-2.352 5.76,-2.352 1.776,0 2.976,0.816 1.248,0.768 1.248,2.256 0,1.68 -1.92,3.264 -1.872,1.584 -4.896,2.784 -3.024,1.2 -6.24,1.728 -0.576,2.208 -0.576,4.32 0,2.784 1.296,4.32 1.344,1.536 3.792,1.536 3.696,0 6,-2.64 2.304,-2.64 3.84,-5.952 0.096,-0.192 0.336,-0.72 0.24,-0.576 0.432,-0.576 0.336,0 0.336,0.72 z m -7.2,-9.888 q -1.824,0 -3.504,1.2 -1.68,1.2 -2.832,2.88 -1.104,1.68 -1.44,2.976 2.208,-0.24 4.656,-1.248 2.448,-1.008 4.08,-2.208 1.68,-1.2 1.68,-1.968 0,-0.768 -0.816,-1.2 -0.768,-0.432 -1.824,-0.432 z m 16.272,23.04 q -2.064,0 -2.784,-0.384 -0.72,-0.384 -0.72,-1.056 0,-0.432 1.104,-1.488 1.104,-1.104 1.488,-1.104 0.576,0 0.576,0.24 0,0.192 -0.24,0.384 -0.24,0.192 -0.24,0.336 0,0.192 0.576,0.384 0.624,0.192 1.488,0.192 2.016,0 4.032,-0.72 2.064,-0.768 3.36,-1.968 1.296,-1.2 1.296,-2.544 0,-1.296 -0.816,-2.064 -0.816,-0.768 -2.064,-1.104 -1.2,-0.384 -4.08,-1.056 -3.168,-0.72 -4.944,-1.248 -1.728,-0.576 -2.784,-1.392 -1.056,-0.864 -1.056,-2.16 0,-2.304 2.256,-4.224 2.256,-1.92 5.184,-3.024 2.928,-1.104 4.512,-1.104 1.632,0 1.632,0.96 0,0.576 -0.384,1.296 -0.384,0.672 -1.152,0.672 -0.288,0 -0.624,-0.192 -0.336,-0.24 -0.672,-0.24 -0.96,0 -3.024,0.624 -2.064,0.624 -3.744,1.872 -1.68,1.248 -1.68,3.024 0,1.152 1.296,1.728 1.344,0.528 4.944,1.344 0.432,0.144 0.864,0.24 0.432,0.048 0.768,0.144 3.696,0.864 5.664,1.968 1.968,1.104 1.968,3.312 0,2.112 -1.728,4.08 -1.68,1.92 -4.464,3.072 -2.784,1.2 -5.808,1.2 z m 21.36,0 q -2.064,0 -2.784,-0.384 -0.72,-0.384 -0.72,-1.056 0,-0.432 1.104,-1.488 1.104,-1.104 1.488,-1.104 0.576,0 0.576,0.24 0,0.192 -0.24,0.384 -0.24,0.192 -0.24,0.336 0,0.192 0.576,0.384 0.624,0.192 1.488,0.192 2.016,0 4.032,-0.72 2.064,-0.768 3.36,-1.968 1.296,-1.2 1.296,-2.544 0,-1.296 -0.816,-2.064 -0.816,-0.768 -2.064,-1.104 -1.2,-0.384 -4.08,-1.056 -3.168,-0.72 -4.944,-1.248 -1.728,-0.576 -2.784,-1.392 -1.056,-0.864 -1.056,-2.16 0,-2.304 2.256,-4.224 2.256,-1.92 5.184,-3.024 2.928,-1.104 4.512,-1.104 1.632,0 1.632,0.96 0,0.576 -0.384,1.296 -0.384,0.672 -1.152,0.672 -0.288,0 -0.624,-0.192 -0.336,-0.24 -0.672,-0.24 -0.96,0 -3.024,0.624 -2.064,0.624 -3.744,1.872 -1.68,1.248 -1.68,3.024 0,1.152 1.296,1.728 1.344,0.528 4.944,1.344 0.432,0.144 0.864,0.24 0.432,0.048 0.768,0.144 3.696,0.864 5.664,1.968 1.968,1.104 1.968,3.312 0,2.112 -1.728,4.08 -1.68,1.92 -4.464,3.072 -2.784,1.2 -5.808,1.2 z m 17.664,-30.96 q -0.816,0 -1.68,-0.672 -0.816,-0.672 -0.816,-1.104 0,-0.528 0.48,-1.008 0.528,-0.48 1.056,-0.48 0.72,0.24 1.2,0.768 0.384,0.384 0.864,1.008 0.48,0.624 0.48,0.768 0,0.72 -1.584,0.72 z m 1.44,30.432 q -0.672,-0.048 -1.008,-2.16 -0.288,-2.112 -0.624,-8.016 -0.192,-3.888 -0.336,-7.584 -0.144,-3.744 -0.192,-5.76 0,-0.528 0.144,-0.768 0.192,-0.288 0.672,-0.288 1.104,0 1.392,0.912 0.288,0.912 0.288,3.504 l -0.048,5.664 q 0,4.848 0.288,7.776 0,0.144 0.432,3.072 0.336,2.016 0.336,2.688 0,0.48 -0.432,0.72 -0.384,0.288 -0.912,0.24 z m 12.96,-0.768 q -3.216,0 -4.752,-1.776 -1.536,-1.776 -1.536,-4.416 0,-2.304 0.816,-5.712 0.864,-3.408 2.4,-6.096 0.096,-0.192 0.768,-1.392 0.72,-1.248 1.584,-1.872 0.864,-0.672 1.824,-0.672 0.432,0 0.768,0.24 0.384,0.192 0.384,0.528 0,0.096 -0.288,0.48 -0.24,0.336 -0.384,0.528 -1.632,1.968 -2.64,3.888 -1.344,2.448 -2.112,4.848 -0.72,2.4 -0.72,5.232 0,3.792 4.608,3.792 2.16,0 3.984,-1.248 1.872,-1.248 2.976,-3.024 1.104,-1.824 1.104,-3.312 0,-1.68 -1.104,-2.928 -1.104,-1.248 -3.024,-2.64 -1.248,-0.912 -1.824,-1.488 -0.576,-0.576 -0.576,-0.96 0,-0.576 0.816,-0.912 0.816,-0.384 1.92,-0.384 0.624,0 0.816,0.096 0.192,0.048 0.192,0.24 0,0.096 -0.192,0.336 -0.144,0.192 -0.144,0.336 0,0.144 0.96,0.96 1.92,1.584 3.216,3.216 1.296,1.632 1.296,3.84 0,1.872 -1.392,4.32 -1.392,2.448 -3.936,4.224 -2.544,1.728 -5.808,1.728 z m 29.856,1.392 q -0.48,0 -0.816,-0.24 -0.336,-0.192 -0.336,-0.576 0,-1.968 0.288,-6.096 0.288,-4.416 0.288,-7.344 0,-2.832 -0.192,-4.608 -0.144,-1.824 -0.768,-1.824 -1.632,0 -3.6,4.08 -1.92,4.032 -4.416,10.656 l -0.72,1.92 q -0.192,0.48 -0.672,0.768 -0.432,0.288 -0.912,0.288 -0.576,0 -0.768,-0.096 -0.192,-0.096 -0.24,-0.576 l -0.384,-3.936 -0.72,-6.912 q -0.336,-4.128 -0.816,-7.2 -0.144,-0.72 -0.144,-1.104 0,-0.72 0.624,-1.152 0.624,-0.48 1.44,-0.48 0.48,0 0.672,2.304 0.24,2.304 0.48,7.44 l 0.192,2.544 q 0.384,4.848 0.432,6.144 0.144,-0.288 0.24,-0.624 0.144,-0.384 0.336,-0.816 2.592,-6.72 4.848,-11.184 2.304,-4.512 4.416,-4.512 1.488,0 2.016,2.544 0.576,2.496 0.72,6.432 0.144,4.368 0.144,12.768 0,0.576 -0.48,0.96 -0.48,0.432 -1.152,0.432 z"
       id="text1"
       aria-label="Depression" />
    <circle
       style="fill:none;fill-opacity:1;stroke:#ffffff;stroke-width:1.51751;stroke-linecap:round;stroke-linejoin:round;stroke-dasharray:none;stroke-dashoffset:0.9578;stroke-opacity:1;paint-order:stroke fill markers"
       id="path45-7-4"
       cx="1123.6467"
       cy="308.98029"
       r="2.1140683" />
    <path
       style="fill:none;fill-opacity:0.8;stroke:#ffffff;stroke-width:1.6;stroke-linecap:round;stroke-linejoin:round;stroke-dasharray:none;stroke-dashoffset:0.9578;stroke-opacity:1;paint-order:stroke fill markers"
       d="m 1125.1764,311.79689 49.049,68.13416 h 129.3399"
       id="path46"
       sodipodi:nodetypes="ccc" />
    <path
       style="fill:none;fill-opacity:0.8;stroke:#ffffff;stroke-width:1.5;stroke-linecap:round;stroke-linejoin:round;stroke-dasharray:none;stroke-dashoffset:0.9578;stroke-opacity:1;paint-order:stroke fill markers"
       d="m 1157.7674,252.61549 28.6996,36.2705 h 151.8539"
       id="path46-6"
       sodipodi:nodetypes="ccc" />
    <path
       style="fill:none;fill-opacity:0.8;stroke:#ffffff;stroke-width:1.6;stroke-linecap:round;stroke-linejoin:round;stroke-dasharray:none;stroke-dashoffset:0.9578;stroke-opacity:1;paint-order:stroke fill markers"
       d="M 893.44097,167.66724 H 1174.0564"
       id="path47" />
    <circle
       style="fill:none;fill-opacity:1;stroke:#ffffff;stroke-width:1.697;stroke-linecap:round;stroke-linejoin:round;stroke-dasharray:none;stroke-dashoffset:0.9578;stroke-opacity:1;paint-order:stroke fill markers"
       id="path45-0-1"
       cx="-729.0907"
       cy="261.40823"
       r="2.3641155"
       transform="scale(-1,1)" />
    <path
       d="m 227.8416,309.11693 q -3.12,0 -4.944,-0.528 -1.824,-0.48 -1.824,-1.392 0,-0.48 0.672,-1.584 0.72,-1.152 1.104,-1.152 0.576,0 0.576,0.24 0,0.144 -0.192,0.336 -0.144,0.192 -0.144,0.384 0,0.144 0.576,0.432 0.624,0.288 1.872,0.528 1.248,0.24 3.024,0.24 2.832,0 4.944,-1.104 2.16,-1.104 3.312,-2.784 1.152,-1.68 1.152,-3.264 0,-2.064 -2.016,-3.552 -1.968,-1.488 -6.384,-2.832 -4.272,-1.392 -6.624,-2.304 -2.304,-0.96 -3.744,-2.304 -1.44,-1.392 -1.44,-3.36 0,-2.64 2.976,-5.184 2.976,-2.592 7.344,-4.176 4.368,-1.632 8.112,-1.632 1.92,0 2.064,0.768 0.144,0.768 0.144,1.728 0,0.72 -0.528,0.72 -0.24,0 -0.576,-0.144 -0.288,-0.192 -0.528,-0.288 -0.288,-0.096 -0.672,-0.192 -0.384,-0.096 -1.104,-0.096 -2.496,0 -6,1.296 -3.504,1.296 -6.096,3.216 -2.544,1.92 -2.544,3.696 0,1.44 1.152,2.496 1.2,1.056 3.168,1.824 1.968,0.72 5.568,1.824 5.28,1.536 7.776,3.456 2.544,1.92 2.544,4.704 0,2.4 -1.632,4.752 -1.584,2.304 -4.512,3.744 -2.88,1.488 -6.576,1.488 z m 19.68,-1.824 q -0.576,0 -1.104,-1.344 -0.48,-1.392 -0.48,-4.176 0.048,-5.424 0.144,-13.104 0.144,-7.68 0.24,-11.568 0.048,-1.392 0.48,-2.592 0.48,-1.2 1.632,-1.2 0.384,0 0.48,0.432 0.144,0.384 0.144,1.536 0,0.048 -0.048,0.336 0,0.24 0,0.912 -0.864,12.624 -0.864,24.624 0,1.536 0.672,3.264 0.72,1.728 0.72,1.824 0,0.48 -0.624,0.768 -0.624,0.288 -1.392,0.288 z m 25.44,-11.28 q 0,0.864 -1.296,3.792 -1.248,2.928 -3.84,5.424 -2.544,2.496 -6.288,2.496 -3.072,0 -5.136,-1.92 -2.064,-1.92 -2.064,-5.904 0,-3.744 1.728,-7.392 1.728,-3.696 4.512,-6 2.784,-2.352 5.76,-2.352 1.776,0 2.976,0.816 1.248,0.768 1.248,2.256 0,1.68 -1.92,3.264 -1.872,1.584 -4.896,2.784 -3.024,1.2 -6.24,1.728 -0.576,2.208 -0.576,4.32 0,2.784 1.296,4.32 1.344,1.536 3.792,1.536 3.696,0 6,-2.64 2.304,-2.64 3.84,-5.952 0.096,-0.192 0.336,-0.72 0.24,-0.576 0.432,-0.576 0.336,0 0.336,0.72 z m -7.2,-9.888 q -1.824,0 -3.504,1.2 -1.68,1.2 -2.832,2.88 -1.104,1.68 -1.44,2.976 2.208,-0.24 4.656,-1.248 2.448,-1.008 4.08,-2.208 1.68,-1.2 1.68,-1.968 0,-0.768 -0.816,-1.2 -0.768,-0.432 -1.824,-0.432 z m 29.4721,9.888 q 0,0.864 -1.296,3.792 -1.248,2.928 -3.84,5.424 -2.544,2.496 -6.288,2.496 -3.072,0 -5.136,-1.92 -2.064,-1.92 -2.064,-5.904 0,-3.744 1.728,-7.392 1.728,-3.696 4.512,-6 2.784,-2.352 5.76,-2.352 1.776,0 2.976,0.816 1.248,0.768 1.248,2.256 0,1.68 -1.92,3.264 -1.872,1.584 -4.896,2.784 -3.024,1.2 -6.24,1.728 -0.576,2.208 -0.576,4.32 0,2.784 1.296,4.32 1.344,1.536 3.792,1.536 3.696,0 6,-2.64 2.304,-2.64 3.84,-5.952 0.096,-0.192 0.336,-0.72 0.24,-0.576 0.432,-0.576 0.336,0 0.336,0.72 z m -7.2,-9.888 q -1.824,0 -3.504,1.2 -1.68,1.2 -2.832,2.88 -1.104,1.68 -1.44,2.976 2.208,-0.24 4.656,-1.248 2.448,-1.008 4.08,-2.208 1.68,-1.2 1.68,-1.968 0,-0.768 -0.816,-1.2 -0.768,-0.432 -1.824,-0.432 z m 16.32,17.568 q -0.096,3.264 -0.096,5.328 0,2.736 0.24,4.992 0.096,0.864 0.096,1.2 0,0.768 -0.336,1.296 -0.336,0.576 -0.96,0.576 -0.864,0 -0.96,-0.624 -0.048,-0.816 -0.144,-2.544 -0.048,-1.68 -0.048,-3.408 l 0.048,-6.72 q -0.24,0 -0.912,0.048 -0.624,0.048 -1.248,0.048 -1.152,0 -1.152,-1.584 0,-1.152 0.576,-1.152 0.192,0 1.152,0.288 0.96,0.288 1.632,0.288 l -0.048,-13.584 q -0.384,-0.048 -1.584,-0.144 -1.2,-0.144 -1.776,-0.48 -0.528,-0.336 -0.528,-0.96 0,-1.248 0.48,-1.248 0.528,0 1.296,0.384 0.096,0.048 0.576,0.288 0.48,0.192 1.344,0.288 0.288,-0.768 0.528,-1.056 0.288,-0.288 1.056,-0.288 0.96,0 0.96,0.384 0,0.144 -0.144,0.528 -0.144,0.336 -0.144,0.672 2.976,0.432 6.72,1.776 3.792,1.296 6.528,3.312 2.784,2.016 2.784,4.416 0,3.408 -4.416,5.28 -4.416,1.872 -11.52,2.4 z m -0.192,-15.36 q 0.096,2.784 0.144,7.392 0.048,4.56 0.048,6.048 2.88,0 6.144,-0.72 3.264,-0.768 5.472,-2.016 2.256,-1.296 2.256,-2.832 0,-2.016 -2.304,-3.648 -2.304,-1.632 -5.568,-2.688 -3.216,-1.056 -6.192,-1.536 z m 21.456,-10.128 q -0.816,0 -1.68,-0.672 -0.816,-0.672 -0.816,-1.104 0,-0.528 0.48,-1.008 0.528,-0.48 1.056,-0.48 0.72,0.24 1.2,0.768 0.384,0.384 0.864,1.008 0.48,0.624 0.48,0.768 0,0.72 -1.584,0.72 z m 1.44,30.432 q -0.672,-0.048 -1.008,-2.16 -0.288,-2.112 -0.624,-8.016 -0.192,-3.888 -0.336,-7.584 -0.144,-3.744 -0.192,-5.76 0,-0.528 0.144,-0.768 0.192,-0.288 0.672,-0.288 1.104,0 1.392,0.912 0.288,0.912 0.288,3.504 l -0.048,5.664 q 0,4.848 0.288,7.776 0,0.144 0.432,3.072 0.336,2.016 0.336,2.688 0,0.48 -0.432,0.72 -0.384,0.288 -0.912,0.24 z m 22.272,0.624 q -0.48,0 -0.816,-0.24 -0.336,-0.192 -0.336,-0.576 0,-1.968 0.288,-6.096 0.288,-4.416 0.288,-7.344 0,-2.832 -0.192,-4.608 -0.144,-1.824 -0.768,-1.824 -1.632,0 -3.6,4.08 -1.92,4.032 -4.416,10.656 l -0.72,1.92 q -0.192,0.48 -0.672,0.768 -0.432,0.288 -0.912,0.288 -0.576,0 -0.768,-0.096 -0.192,-0.096 -0.24,-0.576 l -0.384,-3.936 -0.72,-6.912 q -0.336,-4.128 -0.816,-7.2 -0.144,-0.72 -0.144,-1.104 0,-0.72 0.624,-1.152 0.624,-0.48 1.44,-0.48 0.48,0 0.672,2.304 0.24,2.304 0.48,7.44 l 0.192,2.544 q 0.384,4.848 0.432,6.144 0.144,-0.288 0.24,-0.624 0.144,-0.384 0.336,-0.816 2.592,-6.72 4.848,-11.184 2.304,-4.512 4.416,-4.512 1.488,0 2.016,2.544 0.576,2.496 0.72,6.432 0.144,4.368 0.144,12.768 0,0.576 -0.48,0.96 -0.48,0.432 -1.152,0.432 z m 23.616,9.6 q -2.064,1.968 -4.32,3.168 -2.208,1.248 -3.84,1.248 -0.912,0 -1.296,-0.48 -0.384,-0.432 -0.384,-1.056 0,-0.576 2.16,-1.344 3.264,-1.056 6.048,-3.552 2.16,-1.92 3.168,-4.368 1.008,-2.448 1.008,-4.992 0,-2.88 -0.384,-5.28 -0.336,-2.4 -1.104,-5.904 -0.864,-3.696 -1.2,-6.288 -0.816,2.208 -2.544,5.328 -1.68,3.12 -4.032,6 -2.208,2.736 -4.032,4.08 -1.776,1.344 -3.456,1.344 -1.44,0 -2.16,-1.104 -0.672,-1.152 -0.672,-3.12 0,-3.264 2.016,-7.68 2.016,-4.416 5.04,-7.584 3.024,-3.168 5.952,-3.168 1.008,0 1.536,0.72 0.576,0.72 0.576,1.728 0,1.296 -0.528,1.296 -0.144,0 -0.384,-0.336 -0.192,-0.384 -0.48,-0.672 -0.288,-0.288 -0.624,-0.288 -2.448,0 -4.992,2.736 -2.496,2.736 -4.176,6.432 -1.632,3.648 -1.632,6 0,1.296 0.336,1.872 0.384,0.576 1.152,0.576 1.152,0 2.784,-1.344 1.632,-1.344 3.888,-4.224 2.016,-2.544 3.648,-5.904 1.68,-3.408 2.544,-6.48 0.096,-0.288 0.288,-0.48 0.24,-0.192 0.528,-0.192 0.432,0 0.864,0.288 0.48,0.24 0.48,0.528 0,0.192 -0.096,0.432 -0.048,0.192 -0.096,0.24 0.336,2.64 1.584,8.208 0.912,3.936 1.344,6.624 0.48,2.64 0.48,5.184 0,3.744 -1.488,6.816 -1.488,3.072 -3.504,4.992 z m 37.488,-25.824 q -1.488,0.672 -3.024,1.248 -1.536,0.576 -2.016,0.72 0.24,5.856 0.24,9.984 0,1.344 0.288,2.208 0.336,0.816 0.336,1.056 0,0.528 -0.528,0.864 -0.528,0.384 -1.104,0.384 -0.72,0 -0.912,-1.008 0,-0.096 -0.144,-0.864 -0.096,-0.768 -0.096,-2.16 0,-3.744 -0.288,-12.288 -0.144,-4.32 -0.144,-6.144 0,-1.536 0.048,-2.832 0.048,-1.344 0.048,-1.824 -3.024,0.816 -5.232,1.68 -0.72,0.336 -2.016,1.104 -0.576,0.336 -1.152,0.624 -0.528,0.288 -0.816,0.288 -0.384,0 -0.672,-0.336 -0.288,-0.336 -0.288,-0.816 0,-0.624 1.824,-1.536 1.824,-0.96 4.416,-1.824 2.64,-0.864 4.848,-1.296 2.592,-0.48 5.76,-0.48 4.368,0 6.864,1.152 2.496,1.104 2.496,3.36 0,2.832 -2.304,4.896 -2.304,2.016 -6.432,3.84 z m -0.624,-11.328 q -2.208,0 -4.512,0.288 -0.048,0.384 -0.144,1.776 -0.048,1.392 -0.048,2.64 l 0.048,3.504 q 0.048,1.152 0.048,2.928 1.008,-0.096 4.272,-1.44 3.168,-1.392 5.328,-3.072 2.16,-1.728 2.16,-3.648 0,-1.632 -2.064,-2.304 -2.064,-0.672 -5.088,-0.672 z m 28.08,7.152 q -0.336,0 -0.672,-0.288 -0.288,-0.288 -0.672,-0.816 -0.336,-0.48 -0.912,-0.816 -0.528,-0.336 -1.104,-0.336 -1.392,0 -3.744,3.696 -2.352,3.648 -4.608,9.216 0.048,1.104 0.144,2.784 0.144,1.68 0.192,2.496 l 0.144,1.92 q 0,0.672 -0.288,1.152 -0.288,0.528 -1.056,0.528 -0.816,0 -1.056,-2.16 -0.24,-2.208 -0.288,-6.384 -0.048,-1.056 -0.096,-3.024 0,-1.968 -0.096,-4.704 -0.144,-4.128 -0.144,-5.904 0,-1.104 1.344,-1.104 0.816,0 0.96,0.72 0.192,0.672 0.192,2.64 v 7.632 q 1.44,-3.696 3.12,-6.384 1.68,-2.688 3.264,-4.08 1.632,-1.44 2.88,-1.44 1.056,0 2.016,0.48 0.96,0.48 1.536,1.248 0.576,0.72 0.576,1.392 0,0.432 -0.624,1.008 -0.576,0.528 -1.008,0.528 z m 10.56,19.008 q -3.216,0 -4.752,-1.776 -1.536,-1.776 -1.536,-4.416 0,-2.304 0.816,-5.712 0.864,-3.408 2.4,-6.096 0.096,-0.192 0.768,-1.392 0.72,-1.248 1.584,-1.872 0.864,-0.672 1.824,-0.672 0.432,0 0.768,0.24 0.384,0.192 0.384,0.528 0,0.096 -0.288,0.48 -0.24,0.336 -0.384,0.528 -1.632,1.968 -2.64,3.888 -1.344,2.448 -2.112,4.848 -0.72,2.4 -0.72,5.232 0,3.792 4.608,3.792 2.16,0 3.984,-1.248 1.872,-1.248 2.976,-3.024 1.104,-1.824 1.104,-3.312 0,-1.68 -1.104,-2.928 -1.104,-1.248 -3.024,-2.64 -1.248,-0.912 -1.824,-1.488 -0.576,-0.576 -0.576,-0.96 0,-0.576 0.816,-0.912 0.816,-0.384 1.92,-0.384 0.624,0 0.816,0.096 0.192,0.048 0.192,0.24 0,0.096 -0.192,0.336 -0.144,0.192 -0.144,0.336 0,0.144 0.96,0.96 1.92,1.584 3.216,3.216 1.296,1.632 1.296,3.84 0,1.872 -1.392,4.32 -1.392,2.448 -3.936,4.224 -2.544,1.728 -5.808,1.728 z m 24.0479,-1.488 q -2.112,1.584 -3.168,1.584 -0.528,0 -0.864,-0.384 -0.336,-0.384 -0.336,-0.912 0,-0.528 0.432,-1.056 0.48,-0.528 1.392,-0.912 3.312,-1.44 6.048,-4.128 2.736,-2.736 4.272,-5.76 1.536,-3.024 1.536,-5.328 0,-0.912 -0.432,-1.344 -0.384,-0.48 -1.296,-0.48 -2.016,0 -4.128,1.632 -2.112,1.632 -3.936,4.272 -1.392,2.016 -2.688,4.848 -1.296,2.832 -1.968,6 -0.384,1.68 -1.632,1.68 -0.336,0 -0.72,-0.576 -0.384,-0.624 -0.384,-1.104 0,-5.568 -0.384,-16.368 -0.384,-10.8 -0.528,-12.336 0,-0.288 -0.048,-0.528 -0.048,-0.288 -0.096,-0.528 -0.048,-0.288 -0.096,-0.576 -0.048,-0.336 -0.048,-0.624 0,-1.104 1.008,-1.104 0.816,0 1.296,1.056 0.528,1.008 0.528,2.304 v 2.544 q 0,11.424 0.336,17.568 0.192,3.024 0.384,3.36 0.528,-1.584 1.632,-3.552 1.152,-1.968 2.4,-3.648 2.256,-3.072 4.896,-4.896 2.64,-1.872 4.8,-1.872 1.488,0 2.4,0.96 0.96,0.96 0.96,2.784 0,4.08 -3.264,8.928 -3.264,4.8 -8.304,8.496 z m 18,0.912 q -0.576,0 -1.104,-1.344 -0.48,-1.392 -0.48,-4.176 0.048,-5.424 0.144,-13.104 0.144,-7.68 0.24,-11.568 0.048,-1.392 0.48,-2.592 0.48,-1.2 1.632,-1.2 0.384,0 0.48,0.432 0.144,0.384 0.144,1.536 0,0.048 -0.048,0.336 0,0.24 0,0.912 -0.864,12.624 -0.864,24.624 0,1.536 0.672,3.264 0.72,1.728 0.72,1.824 0,0.48 -0.624,0.768 -0.624,0.288 -1.392,0.288 z m 25.44,-11.28 q 0,0.864 -1.296,3.792 -1.248,2.928 -3.84,5.424 -2.544,2.496 -6.288,2.496 -3.072,0 -5.136,-1.92 -2.064,-1.92 -2.064,-5.904 0,-3.744 1.728,-7.392 1.728,-3.696 4.512,-6 2.784,-2.352 5.76,-2.352 1.776,0 2.976,0.816 1.248,0.768 1.248,2.256 0,1.68 -1.92,3.264 -1.872,1.584 -4.896,2.784 -3.024,1.2 -6.24,1.728 -0.576,2.208 -0.576,4.32 0,2.784 1.296,4.32 1.344,1.536 3.792,1.536 3.696,0 6,-2.64 2.304,-2.64 3.84,-5.952 0.096,-0.192 0.336,-0.72 0.24,-0.576 0.432,-0.576 0.336,0 0.336,0.72 z m -7.2,-9.888 q -1.824,0 -3.504,1.2 -1.68,1.2 -2.832,2.88 -1.104,1.68 -1.44,2.976 2.208,-0.24 4.656,-1.248 2.448,-1.008 4.08,-2.208 1.68,-1.2 1.68,-1.968 0,-0.768 -0.816,-1.2 -0.768,-0.432 -1.824,-0.432 z m 39.8881,22.32 q -0.864,0 -0.864,-0.864 0,-9.696 -0.624,-14.832 -0.624,-5.184 -2.16,-5.184 -2.592,0 -7.584,18.096 v 0.048 q 0,0.576 -0.384,1.008 -0.384,0.384 -1.008,0.384 -0.864,0 -0.864,-0.864 0,-1.92 0.192,-5.952 0.192,-4.512 0.192,-7.104 0,-3.6 -0.24,-5.088 -0.192,-1.536 -0.912,-1.536 -1.632,0 -4.128,6 -2.496,5.952 -5.232,14.064 l -0.432,1.248 q -0.192,0.48 -0.576,0.816 -0.336,0.336 -0.768,0.336 -0.576,0 -0.768,-0.096 -0.192,-0.096 -0.24,-0.576 -0.24,-2.352 -0.384,-6.288 -0.096,-1.008 -0.192,-3.312 -0.48,-8.112 -0.864,-10.944 -0.384,-2.88 -0.384,-3.216 0,-0.384 0.384,-0.912 0.384,-0.528 0.72,-0.528 0.768,0 1.248,1.104 0.24,0.528 0.528,4.224 0.288,3.696 0.48,9.168 l 0.24,7.344 q 2.64,-8.16 5.472,-14.784 2.832,-6.672 5.184,-6.672 1.584,0 2.16,2.304 0.576,2.304 0.576,6.672 0,2.304 -0.096,6.624 l -0.048,2.208 q 1.968,-6.864 3.888,-11.52 1.968,-4.656 3.936,-4.656 4.944,0 4.944,21.888 0,0.576 -0.384,0.96 -0.384,0.432 -1.008,0.432 z m 12.336,0.72 q -2.064,0 -2.784,-0.384 -0.72,-0.384 -0.72,-1.056 0,-0.432 1.104,-1.488 1.104,-1.104 1.488,-1.104 0.576,0 0.576,0.24 0,0.192 -0.24,0.384 -0.24,0.192 -0.24,0.336 0,0.192 0.576,0.384 0.624,0.192 1.488,0.192 2.016,0 4.032,-0.72 2.064,-0.768 3.36,-1.968 1.296,-1.2 1.296,-2.544 0,-1.296 -0.816,-2.064 -0.816,-0.768 -2.064,-1.104 -1.2,-0.384 -4.08,-1.056 -3.168,-0.72 -4.944,-1.248 -1.728,-0.576 -2.784,-1.392 -1.056,-0.864 -1.056,-2.16 0,-2.304 2.256,-4.224 2.256,-1.92 5.184,-3.024 2.928,-1.104 4.512,-1.104 1.632,0 1.632,0.96 0,0.576 -0.384,1.296 -0.384,0.672 -1.152,0.672 -0.288,0 -0.624,-0.192 -0.336,-0.24 -0.672,-0.24 -0.96,0 -3.024,0.624 -2.064,0.624 -3.744,1.872 -1.68,1.248 -1.68,3.024 0,1.152 1.296,1.728 1.344,0.528 4.944,1.344 0.432,0.144 0.864,0.24 0.432,0.048 0.768,0.144 3.696,0.864 5.664,1.968 1.968,1.104 1.968,3.312 0,2.112 -1.728,4.08 -1.68,1.92 -4.464,3.072 -2.784,1.2 -5.808,1.2 z"
       id="text1-8"
       style="font-size:48px;line-height:1.24;font-family:'Ink Free';-inkscape-font-specification:'Ink Free';letter-spacing:0px;white-space:pre;fill:#ffffff;fill-opacity:0.9;stroke:#ffffff;stroke-width:0;stroke-linecap:round;stroke-linejoin:round;stroke-dashoffset:0.9578;paint-order:stroke fill markers"
       aria-label="Sleeping Problems" />
    <path
       style="fill:none;fill-opacity:0.8;stroke:#ffffff;stroke-width:1.5;stroke-linecap:round;stroke-linejoin:round;stroke-dasharray:none;stroke-dashoffset:0.9578;stroke-opacity:1;paint-order:stroke fill markers"
       d="m 727.07355,263.50937 -29.7842,34.0664 H 591.94094"
       id="path46-6-5"
       sodipodi:nodetypes="ccc" />
    <path
       style="fill:none;fill-opacity:0.8;stroke:#ffffff;stroke-width:1.6;stroke-linecap:round;stroke-linejoin:round;stroke-dasharray:none;stroke-dashoffset:0.9578;stroke-opacity:1;paint-order:stroke fill markers"
       d="M 616.40964,381.7073 H 779.49555"
       id="path47-9" />
  </g>
</svg>
